<svg width="624" height="368" viewBox="0 0 624 368" fill="none" xmlns="http://www.w3.org/2000/svg">
<path d="M46 201C46 194.373 51.3726 189 58 189H134C140.627 189 146 194.373 146 201V277C146 283.627 140.627 289 134 289H58C51.3726 289 46 283.627 46 277V201Z" stroke="url(#paint0_linear_2068_973)"/>
<g clip-path="url(#clip0_2068_973)">
<g filter="url(#filter0_dddd_2068_973)">
<path d="M420 186.116C421.157 186.116 422.095 185.169 422.095 184C422.095 182.831 421.157 181.884 420 181.884C418.843 181.884 417.905 182.831 417.905 184C417.905 185.169 418.843 186.116 420 186.116Z" fill="#FAFAFA"/>
<path d="M420 188.762C425.786 188.762 430.476 186.63 430.476 184C430.476 181.37 425.786 179.238 420 179.238C414.214 179.238 409.524 181.37 409.524 184C409.524 186.63 414.214 188.762 420 188.762Z" stroke="#FAFAFA" stroke-width="1.5"/>
<path d="M415.917 186.381C418.81 191.442 422.983 194.479 425.238 193.164C427.493 191.849 426.976 186.68 424.083 181.619C421.19 176.558 417.017 173.521 414.762 174.836C412.507 176.151 413.024 181.32 415.917 186.381Z" stroke="#FAFAFA" stroke-width="1.5"/>
<path d="M415.917 181.619C413.024 186.68 412.507 191.849 414.762 193.164C417.017 194.479 421.19 191.442 424.083 186.381C426.976 181.32 427.493 176.151 425.238 174.836C422.983 173.521 418.81 176.558 415.917 181.619Z" stroke="#FAFAFA" stroke-width="1.5"/>
</g>
</g>
<path d="M370 146C370 139.373 375.373 134 382 134H458C464.627 134 470 139.373 470 146V222C470 228.627 464.627 234 458 234H382C375.373 234 370 228.627 370 222V146Z" stroke="#FAFAFA" stroke-opacity="0.5"/>
<path d="M370 38C370 31.3726 375.373 26 382 26H458C464.627 26 470 31.3726 470 38V114C470 120.627 464.627 126 458 126H382C375.373 126 370 120.627 370 114V38Z" stroke="url(#paint1_linear_2068_973)"/>
<g clip-path="url(#clip1_2068_973)">
<g filter="url(#filter1_dddd_2068_973)">
<path d="M204 177C201.067 177 199.233 178.667 198.5 182C199.6 180.334 200.883 179.708 202.35 180.126C203.187 180.363 203.784 181.053 204.447 181.816C205.525 183.06 206.774 184.5 209.5 184.5C212.434 184.5 214.267 182.833 215 179.5C213.901 181.167 212.617 181.792 211.15 181.375C210.314 181.138 209.715 180.447 209.053 179.683C207.975 178.44 206.726 177 204 177ZM198.5 184.5C195.566 184.5 193.733 186.167 193 189.5C194.099 187.833 195.383 187.208 196.85 187.625C197.686 187.862 198.285 188.553 198.947 189.317C200.025 190.56 201.274 192 204 192C206.934 192 208.767 190.333 209.5 187C208.4 188.667 207.117 189.292 205.65 188.875C204.813 188.637 204.216 187.947 203.553 187.183C202.474 185.94 201.227 184.5 198.5 184.5Z" fill="#FAFAFA"/>
</g>
</g>
<path d="M154 146C154 139.373 159.373 134 166 134H242C248.627 134 254 139.373 254 146V222C254 228.627 248.627 234 242 234H166C159.373 234 154 228.627 154 222V146Z" stroke="#FAFAFA" stroke-opacity="0.4"/>
<path d="M154 38C154 31.3726 159.373 26 166 26H242C248.627 26 254 31.3726 254 38V114C254 120.627 248.627 126 242 126H166C159.373 126 154 120.627 154 114V38Z" stroke="url(#paint2_linear_2068_973)"/>
<path d="M154 254C154 247.373 159.373 242 166 242H242C248.627 242 254 247.373 254 254V330C254 336.627 248.627 342 242 342H166C159.373 342 154 336.627 154 330V254Z" stroke="url(#paint3_linear_2068_973)"/>
<path d="M370 254C370 247.373 375.373 242 382 242H458C464.627 242 470 247.373 470 254V330C470 336.627 464.627 342 458 342H382C375.373 342 370 336.627 370 330V254Z" stroke="url(#paint4_linear_2068_973)"/>
<path d="M478 200C478 193.373 483.373 188 490 188H566C572.627 188 578 193.373 578 200V276C578 282.627 572.627 288 566 288H490C483.373 288 478 282.627 478 276V200Z" stroke="url(#paint5_linear_2068_973)"/>
<g clip-path="url(#clip2_2068_973)">
<g filter="url(#filter2_dddd_2068_973)">
<path fill-rule="evenodd" clip-rule="evenodd" d="M537 119C538.105 119 539 119.892 539 120.997C539 126.685 539 135.177 539 139.004C539 140.109 538.108 141 537.003 141C531.315 141 522.823 141 518.996 141C517.891 141 517 140.108 517 139.003C517 133.201 517 124.793 517 120.995C517 119.89 517.895 119 519 119L537 119ZM529.23 130.704V128.9H521.4V130.704H524.195V138.738H526.421V130.704H529.23ZM530.117 138.526C530.476 138.709 530.9 138.846 531.39 138.938C531.88 139.029 532.396 139.075 532.939 139.075C533.468 139.075 533.971 139.025 534.447 138.924C534.923 138.823 535.341 138.658 535.7 138.427C536.059 138.196 536.343 137.894 536.552 137.521C536.761 137.148 536.866 136.687 536.866 136.138C536.866 135.74 536.806 135.392 536.687 135.092C536.567 134.793 536.394 134.526 536.169 134.293C535.944 134.06 535.673 133.85 535.358 133.665C535.043 133.48 534.688 133.305 534.292 133.14C534.002 133.021 533.742 132.906 533.512 132.794C533.282 132.682 533.087 132.567 532.926 132.451C532.764 132.334 532.64 132.21 532.553 132.08C532.465 131.95 532.422 131.802 532.422 131.638C532.422 131.487 532.461 131.351 532.539 131.229C532.617 131.108 532.728 131.004 532.87 130.917C533.013 130.83 533.188 130.763 533.395 130.715C533.602 130.667 533.832 130.643 534.085 130.643C534.269 130.643 534.463 130.656 534.668 130.684C534.873 130.711 535.079 130.754 535.286 130.811C535.493 130.868 535.694 130.94 535.89 131.027C536.085 131.114 536.266 131.214 536.431 131.329V129.277C536.095 129.149 535.728 129.054 535.33 128.993C534.933 128.931 534.476 128.9 533.961 128.9C533.436 128.9 532.939 128.956 532.47 129.068C532.001 129.18 531.588 129.355 531.231 129.593C530.875 129.831 530.593 130.134 530.386 130.502C530.179 130.87 530.075 131.311 530.075 131.823C530.075 132.477 530.265 133.035 530.645 133.497C531.024 133.959 531.601 134.35 532.373 134.67C532.677 134.794 532.96 134.915 533.222 135.034C533.485 135.153 533.711 135.276 533.902 135.404C534.093 135.532 534.244 135.672 534.354 135.823C534.464 135.974 534.52 136.145 534.52 136.337C534.52 136.479 534.485 136.611 534.416 136.732C534.347 136.853 534.242 136.958 534.102 137.048C533.962 137.137 533.787 137.207 533.578 137.257C533.368 137.307 533.123 137.332 532.843 137.332C532.364 137.332 531.89 137.249 531.421 137.082C530.952 136.915 530.517 136.664 530.117 136.331V138.526Z" fill="#FAFAFA"/>
</g>
</g>
<path d="M478 92C478 85.3726 483.373 80 490 80H566C572.627 80 578 85.3726 578 92V168C578 174.627 572.627 180 566 180H490C483.373 180 478 174.627 478 168V92Z" stroke="#FAFAFA" stroke-opacity="0.1"/>
<g clip-path="url(#clip3_2068_973)">
<g filter="url(#filter3_dddd_2068_973)">
<path d="M312 120V134M312 134V137.5C312 139.433 310.433 141 308.5 141C306.567 141 305 139.433 305 137.5C305 135.567 306.567 134 308.5 134M312 134H308.5M308.5 134C306.567 134 305 132.433 305 130.5C305 128.567 306.567 127 308.5 127M308.5 127H312M308.5 127H315.5M308.5 127C306.567 127 305 125.433 305 123.5C305 121.567 306.567 120 308.5 120H315.5C317.433 120 319 121.567 319 123.5C319 125.433 317.433 127 315.5 127M315.5 127C317.433 127 319 128.567 319 130.5C319 132.433 317.433 134 315.5 134C313.567 134 312 132.433 312 130.5C312 128.567 313.567 127 315.5 127Z" stroke="#FAFAFA" stroke-width="2" stroke-linecap="round" stroke-linejoin="round"/>
</g>
</g>
<path d="M262 92C262 85.3726 267.373 80 274 80H350C356.627 80 362 85.3726 362 92V168C362 174.627 356.627 180 350 180H274C267.373 180 262 174.627 262 168V92Z" stroke="#FAFAFA" stroke-opacity="0.2"/>
<g clip-path="url(#clip4_2068_973)">
<g filter="url(#filter4_dddd_2068_973)">
<g filter="url(#filter5_dddd_2068_973)">
<path d="M319.5 238L312 245.5" stroke="#FAFAFA" stroke-width="1.5" stroke-linecap="round" stroke-linejoin="round"/>
</g>
<g filter="url(#filter6_dddd_2068_973)">
<path d="M318 229.75L303.75 244" stroke="#FAFAFA" stroke-width="1.5" stroke-linecap="round" stroke-linejoin="round"/>
</g>
</g>
</g>
<path d="M262 200C262 193.373 267.373 188 274 188H350C356.627 188 362 193.373 362 200V276C362 282.627 356.627 288 350 288H274C267.373 288 262 282.627 262 276V200Z" stroke="#FAFAFA" stroke-opacity="0.3"/>
<defs>
<filter id="filter0_dddd_2068_973" x="344" y="108" width="152" height="152" filterUnits="userSpaceOnUse" color-interpolation-filters="sRGB">
<feFlood flood-opacity="0" result="BackgroundImageFix"/>
<feColorMatrix in="SourceAlpha" type="matrix" values="0 0 0 0 0 0 0 0 0 0 0 0 0 0 0 0 0 0 127 0" result="hardAlpha"/>
<feOffset/>
<feGaussianBlur stdDeviation="32"/>
<feColorMatrix type="matrix" values="0 0 0 0 0.984314 0 0 0 0 0.572549 0 0 0 0 0.235294 0 0 0 1 0"/>
<feBlend mode="normal" in2="BackgroundImageFix" result="effect1_dropShadow_2068_973"/>
<feColorMatrix in="SourceAlpha" type="matrix" values="0 0 0 0 0 0 0 0 0 0 0 0 0 0 0 0 0 0 127 0" result="hardAlpha"/>
<feOffset/>
<feGaussianBlur stdDeviation="24"/>
<feColorMatrix type="matrix" values="0 0 0 0 0.984314 0 0 0 0 0.572549 0 0 0 0 0.235294 0 0 0 1 0"/>
<feBlend mode="normal" in2="effect1_dropShadow_2068_973" result="effect2_dropShadow_2068_973"/>
<feColorMatrix in="SourceAlpha" type="matrix" values="0 0 0 0 0 0 0 0 0 0 0 0 0 0 0 0 0 0 127 0" result="hardAlpha"/>
<feOffset/>
<feGaussianBlur stdDeviation="16"/>
<feColorMatrix type="matrix" values="0 0 0 0 0.984314 0 0 0 0 0.572549 0 0 0 0 0.235294 0 0 0 1 0"/>
<feBlend mode="normal" in2="effect2_dropShadow_2068_973" result="effect3_dropShadow_2068_973"/>
<feColorMatrix in="SourceAlpha" type="matrix" values="0 0 0 0 0 0 0 0 0 0 0 0 0 0 0 0 0 0 127 0" result="hardAlpha"/>
<feOffset/>
<feGaussianBlur stdDeviation="4"/>
<feColorMatrix type="matrix" values="0 0 0 0 0.992157 0 0 0 0 0.729412 0 0 0 0 0.454902 0 0 0 0.5 0"/>
<feBlend mode="normal" in2="effect3_dropShadow_2068_973" result="effect4_dropShadow_2068_973"/>
<feBlend mode="normal" in="SourceGraphic" in2="effect4_dropShadow_2068_973" result="shape"/>
</filter>
<filter id="filter1_dddd_2068_973" x="128" y="108" width="152" height="152" filterUnits="userSpaceOnUse" color-interpolation-filters="sRGB">
<feFlood flood-opacity="0" result="BackgroundImageFix"/>
<feColorMatrix in="SourceAlpha" type="matrix" values="0 0 0 0 0 0 0 0 0 0 0 0 0 0 0 0 0 0 127 0" result="hardAlpha"/>
<feOffset/>
<feGaussianBlur stdDeviation="32"/>
<feColorMatrix type="matrix" values="0 0 0 0 0.984314 0 0 0 0 0.572549 0 0 0 0 0.235294 0 0 0 1 0"/>
<feBlend mode="normal" in2="BackgroundImageFix" result="effect1_dropShadow_2068_973"/>
<feColorMatrix in="SourceAlpha" type="matrix" values="0 0 0 0 0 0 0 0 0 0 0 0 0 0 0 0 0 0 127 0" result="hardAlpha"/>
<feOffset/>
<feGaussianBlur stdDeviation="24"/>
<feColorMatrix type="matrix" values="0 0 0 0 0.984314 0 0 0 0 0.572549 0 0 0 0 0.235294 0 0 0 1 0"/>
<feBlend mode="normal" in2="effect1_dropShadow_2068_973" result="effect2_dropShadow_2068_973"/>
<feColorMatrix in="SourceAlpha" type="matrix" values="0 0 0 0 0 0 0 0 0 0 0 0 0 0 0 0 0 0 127 0" result="hardAlpha"/>
<feOffset/>
<feGaussianBlur stdDeviation="16"/>
<feColorMatrix type="matrix" values="0 0 0 0 0.984314 0 0 0 0 0.572549 0 0 0 0 0.235294 0 0 0 1 0"/>
<feBlend mode="normal" in2="effect2_dropShadow_2068_973" result="effect3_dropShadow_2068_973"/>
<feColorMatrix in="SourceAlpha" type="matrix" values="0 0 0 0 0 0 0 0 0 0 0 0 0 0 0 0 0 0 127 0" result="hardAlpha"/>
<feOffset/>
<feGaussianBlur stdDeviation="4"/>
<feColorMatrix type="matrix" values="0 0 0 0 0.992157 0 0 0 0 0.729412 0 0 0 0 0.454902 0 0 0 0.5 0"/>
<feBlend mode="normal" in2="effect3_dropShadow_2068_973" result="effect4_dropShadow_2068_973"/>
<feBlend mode="normal" in="SourceGraphic" in2="effect4_dropShadow_2068_973" result="shape"/>
</filter>
<filter id="filter2_dddd_2068_973" x="452" y="54" width="152" height="152" filterUnits="userSpaceOnUse" color-interpolation-filters="sRGB">
<feFlood flood-opacity="0" result="BackgroundImageFix"/>
<feColorMatrix in="SourceAlpha" type="matrix" values="0 0 0 0 0 0 0 0 0 0 0 0 0 0 0 0 0 0 127 0" result="hardAlpha"/>
<feOffset/>
<feGaussianBlur stdDeviation="32"/>
<feColorMatrix type="matrix" values="0 0 0 0 0.984314 0 0 0 0 0.572549 0 0 0 0 0.235294 0 0 0 1 0"/>
<feBlend mode="normal" in2="BackgroundImageFix" result="effect1_dropShadow_2068_973"/>
<feColorMatrix in="SourceAlpha" type="matrix" values="0 0 0 0 0 0 0 0 0 0 0 0 0 0 0 0 0 0 127 0" result="hardAlpha"/>
<feOffset/>
<feGaussianBlur stdDeviation="24"/>
<feColorMatrix type="matrix" values="0 0 0 0 0.984314 0 0 0 0 0.572549 0 0 0 0 0.235294 0 0 0 1 0"/>
<feBlend mode="normal" in2="effect1_dropShadow_2068_973" result="effect2_dropShadow_2068_973"/>
<feColorMatrix in="SourceAlpha" type="matrix" values="0 0 0 0 0 0 0 0 0 0 0 0 0 0 0 0 0 0 127 0" result="hardAlpha"/>
<feOffset/>
<feGaussianBlur stdDeviation="16"/>
<feColorMatrix type="matrix" values="0 0 0 0 0.984314 0 0 0 0 0.572549 0 0 0 0 0.235294 0 0 0 1 0"/>
<feBlend mode="normal" in2="effect2_dropShadow_2068_973" result="effect3_dropShadow_2068_973"/>
<feColorMatrix in="SourceAlpha" type="matrix" values="0 0 0 0 0 0 0 0 0 0 0 0 0 0 0 0 0 0 127 0" result="hardAlpha"/>
<feOffset/>
<feGaussianBlur stdDeviation="4"/>
<feColorMatrix type="matrix" values="0 0 0 0 0.992157 0 0 0 0 0.729412 0 0 0 0 0.454902 0 0 0 0.5 0"/>
<feBlend mode="normal" in2="effect3_dropShadow_2068_973" result="effect4_dropShadow_2068_973"/>
<feBlend mode="normal" in="SourceGraphic" in2="effect4_dropShadow_2068_973" result="shape"/>
</filter>
<filter id="filter3_dddd_2068_973" x="236" y="54" width="152" height="152" filterUnits="userSpaceOnUse" color-interpolation-filters="sRGB">
<feFlood flood-opacity="0" result="BackgroundImageFix"/>
<feColorMatrix in="SourceAlpha" type="matrix" values="0 0 0 0 0 0 0 0 0 0 0 0 0 0 0 0 0 0 127 0" result="hardAlpha"/>
<feOffset/>
<feGaussianBlur stdDeviation="32"/>
<feColorMatrix type="matrix" values="0 0 0 0 0.984314 0 0 0 0 0.572549 0 0 0 0 0.235294 0 0 0 1 0"/>
<feBlend mode="normal" in2="BackgroundImageFix" result="effect1_dropShadow_2068_973"/>
<feColorMatrix in="SourceAlpha" type="matrix" values="0 0 0 0 0 0 0 0 0 0 0 0 0 0 0 0 0 0 127 0" result="hardAlpha"/>
<feOffset/>
<feGaussianBlur stdDeviation="24"/>
<feColorMatrix type="matrix" values="0 0 0 0 0.984314 0 0 0 0 0.572549 0 0 0 0 0.235294 0 0 0 1 0"/>
<feBlend mode="normal" in2="effect1_dropShadow_2068_973" result="effect2_dropShadow_2068_973"/>
<feColorMatrix in="SourceAlpha" type="matrix" values="0 0 0 0 0 0 0 0 0 0 0 0 0 0 0 0 0 0 127 0" result="hardAlpha"/>
<feOffset/>
<feGaussianBlur stdDeviation="16"/>
<feColorMatrix type="matrix" values="0 0 0 0 0.984314 0 0 0 0 0.572549 0 0 0 0 0.235294 0 0 0 1 0"/>
<feBlend mode="normal" in2="effect2_dropShadow_2068_973" result="effect3_dropShadow_2068_973"/>
<feColorMatrix in="SourceAlpha" type="matrix" values="0 0 0 0 0 0 0 0 0 0 0 0 0 0 0 0 0 0 127 0" result="hardAlpha"/>
<feOffset/>
<feGaussianBlur stdDeviation="4"/>
<feColorMatrix type="matrix" values="0 0 0 0 0.992157 0 0 0 0 0.729412 0 0 0 0 0.454902 0 0 0 0.5 0"/>
<feBlend mode="normal" in2="effect3_dropShadow_2068_973" result="effect4_dropShadow_2068_973"/>
<feBlend mode="normal" in="SourceGraphic" in2="effect4_dropShadow_2068_973" result="shape"/>
</filter>
<filter id="filter4_dddd_2068_973" x="236" y="162" width="152" height="152" filterUnits="userSpaceOnUse" color-interpolation-filters="sRGB">
<feFlood flood-opacity="0" result="BackgroundImageFix"/>
<feColorMatrix in="SourceAlpha" type="matrix" values="0 0 0 0 0 0 0 0 0 0 0 0 0 0 0 0 0 0 127 0" result="hardAlpha"/>
<feOffset/>
<feGaussianBlur stdDeviation="32"/>
<feColorMatrix type="matrix" values="0 0 0 0 0.984314 0 0 0 0 0.572549 0 0 0 0 0.235294 0 0 0 1 0"/>
<feBlend mode="normal" in2="BackgroundImageFix" result="effect1_dropShadow_2068_973"/>
<feColorMatrix in="SourceAlpha" type="matrix" values="0 0 0 0 0 0 0 0 0 0 0 0 0 0 0 0 0 0 127 0" result="hardAlpha"/>
<feOffset/>
<feGaussianBlur stdDeviation="24"/>
<feColorMatrix type="matrix" values="0 0 0 0 0.984314 0 0 0 0 0.572549 0 0 0 0 0.235294 0 0 0 1 0"/>
<feBlend mode="normal" in2="effect1_dropShadow_2068_973" result="effect2_dropShadow_2068_973"/>
<feColorMatrix in="SourceAlpha" type="matrix" values="0 0 0 0 0 0 0 0 0 0 0 0 0 0 0 0 0 0 127 0" result="hardAlpha"/>
<feOffset/>
<feGaussianBlur stdDeviation="16"/>
<feColorMatrix type="matrix" values="0 0 0 0 0.984314 0 0 0 0 0.572549 0 0 0 0 0.235294 0 0 0 1 0"/>
<feBlend mode="normal" in2="effect2_dropShadow_2068_973" result="effect3_dropShadow_2068_973"/>
<feColorMatrix in="SourceAlpha" type="matrix" values="0 0 0 0 0 0 0 0 0 0 0 0 0 0 0 0 0 0 127 0" result="hardAlpha"/>
<feOffset/>
<feGaussianBlur stdDeviation="4"/>
<feColorMatrix type="matrix" values="0 0 0 0 0.992157 0 0 0 0 0.729412 0 0 0 0 0.454902 0 0 0 0.5 0"/>
<feBlend mode="normal" in2="effect3_dropShadow_2068_973" result="effect4_dropShadow_2068_973"/>
<feBlend mode="normal" in="SourceGraphic" in2="effect4_dropShadow_2068_973" result="shape"/>
</filter>
<filter id="filter5_dddd_2068_973" x="247.25" y="173.25" width="137" height="137" filterUnits="userSpaceOnUse" color-interpolation-filters="sRGB">
<feFlood flood-opacity="0" result="BackgroundImageFix"/>
<feColorMatrix in="SourceAlpha" type="matrix" values="0 0 0 0 0 0 0 0 0 0 0 0 0 0 0 0 0 0 127 0" result="hardAlpha"/>
<feOffset/>
<feGaussianBlur stdDeviation="32"/>
<feColorMatrix type="matrix" values="0 0 0 0 0.984314 0 0 0 0 0.572549 0 0 0 0 0.235294 0 0 0 1 0"/>
<feBlend mode="normal" in2="BackgroundImageFix" result="effect1_dropShadow_2068_973"/>
<feColorMatrix in="SourceAlpha" type="matrix" values="0 0 0 0 0 0 0 0 0 0 0 0 0 0 0 0 0 0 127 0" result="hardAlpha"/>
<feOffset/>
<feGaussianBlur stdDeviation="24"/>
<feColorMatrix type="matrix" values="0 0 0 0 0.984314 0 0 0 0 0.572549 0 0 0 0 0.235294 0 0 0 1 0"/>
<feBlend mode="normal" in2="effect1_dropShadow_2068_973" result="effect2_dropShadow_2068_973"/>
<feColorMatrix in="SourceAlpha" type="matrix" values="0 0 0 0 0 0 0 0 0 0 0 0 0 0 0 0 0 0 127 0" result="hardAlpha"/>
<feOffset/>
<feGaussianBlur stdDeviation="16"/>
<feColorMatrix type="matrix" values="0 0 0 0 0.984314 0 0 0 0 0.572549 0 0 0 0 0.235294 0 0 0 1 0"/>
<feBlend mode="normal" in2="effect2_dropShadow_2068_973" result="effect3_dropShadow_2068_973"/>
<feColorMatrix in="SourceAlpha" type="matrix" values="0 0 0 0 0 0 0 0 0 0 0 0 0 0 0 0 0 0 127 0" result="hardAlpha"/>
<feOffset/>
<feGaussianBlur stdDeviation="4"/>
<feColorMatrix type="matrix" values="0 0 0 0 0.992157 0 0 0 0 0.729412 0 0 0 0 0.454902 0 0 0 0.5 0"/>
<feBlend mode="normal" in2="effect3_dropShadow_2068_973" result="effect4_dropShadow_2068_973"/>
<feBlend mode="normal" in="SourceGraphic" in2="effect4_dropShadow_2068_973" result="shape"/>
</filter>
<filter id="filter6_dddd_2068_973" x="239" y="165" width="143.75" height="143.75" filterUnits="userSpaceOnUse" color-interpolation-filters="sRGB">
<feFlood flood-opacity="0" result="BackgroundImageFix"/>
<feColorMatrix in="SourceAlpha" type="matrix" values="0 0 0 0 0 0 0 0 0 0 0 0 0 0 0 0 0 0 127 0" result="hardAlpha"/>
<feOffset/>
<feGaussianBlur stdDeviation="32"/>
<feColorMatrix type="matrix" values="0 0 0 0 0.984314 0 0 0 0 0.572549 0 0 0 0 0.235294 0 0 0 1 0"/>
<feBlend mode="normal" in2="BackgroundImageFix" result="effect1_dropShadow_2068_973"/>
<feColorMatrix in="SourceAlpha" type="matrix" values="0 0 0 0 0 0 0 0 0 0 0 0 0 0 0 0 0 0 127 0" result="hardAlpha"/>
<feOffset/>
<feGaussianBlur stdDeviation="24"/>
<feColorMatrix type="matrix" values="0 0 0 0 0.984314 0 0 0 0 0.572549 0 0 0 0 0.235294 0 0 0 1 0"/>
<feBlend mode="normal" in2="effect1_dropShadow_2068_973" result="effect2_dropShadow_2068_973"/>
<feColorMatrix in="SourceAlpha" type="matrix" values="0 0 0 0 0 0 0 0 0 0 0 0 0 0 0 0 0 0 127 0" result="hardAlpha"/>
<feOffset/>
<feGaussianBlur stdDeviation="16"/>
<feColorMatrix type="matrix" values="0 0 0 0 0.984314 0 0 0 0 0.572549 0 0 0 0 0.235294 0 0 0 1 0"/>
<feBlend mode="normal" in2="effect2_dropShadow_2068_973" result="effect3_dropShadow_2068_973"/>
<feColorMatrix in="SourceAlpha" type="matrix" values="0 0 0 0 0 0 0 0 0 0 0 0 0 0 0 0 0 0 127 0" result="hardAlpha"/>
<feOffset/>
<feGaussianBlur stdDeviation="4"/>
<feColorMatrix type="matrix" values="0 0 0 0 0.992157 0 0 0 0 0.729412 0 0 0 0 0.454902 0 0 0 0.5 0"/>
<feBlend mode="normal" in2="effect3_dropShadow_2068_973" result="effect4_dropShadow_2068_973"/>
<feBlend mode="normal" in="SourceGraphic" in2="effect4_dropShadow_2068_973" result="shape"/>
</filter>
<linearGradient id="paint0_linear_2068_973" x1="46" y1="239" x2="146" y2="239" gradientUnits="userSpaceOnUse">
<stop stop-color="white" stop-opacity="0"/>
<stop offset="1" stop-color="#FAFAFA" stop-opacity="0.2"/>
</linearGradient>
<linearGradient id="paint1_linear_2068_973" x1="420" y1="26" x2="420" y2="126" gradientUnits="userSpaceOnUse">
<stop stop-color="white" stop-opacity="0"/>
<stop offset="1" stop-color="#FAFAFA" stop-opacity="0.2"/>
</linearGradient>
<linearGradient id="paint2_linear_2068_973" x1="204" y1="26" x2="204" y2="126" gradientUnits="userSpaceOnUse">
<stop stop-color="white" stop-opacity="0"/>
<stop offset="1" stop-color="#FAFAFA" stop-opacity="0.2"/>
</linearGradient>
<linearGradient id="paint3_linear_2068_973" x1="204" y1="342" x2="204" y2="242" gradientUnits="userSpaceOnUse">
<stop stop-color="white" stop-opacity="0"/>
<stop offset="1" stop-color="#FAFAFA" stop-opacity="0.1"/>
</linearGradient>
<linearGradient id="paint4_linear_2068_973" x1="420" y1="342" x2="420" y2="242" gradientUnits="userSpaceOnUse">
<stop stop-color="white" stop-opacity="0"/>
<stop offset="1" stop-color="#FAFAFA" stop-opacity="0.2"/>
</linearGradient>
<linearGradient id="paint5_linear_2068_973" x1="578" y1="238" x2="478" y2="238" gradientUnits="userSpaceOnUse">
<stop stop-color="white" stop-opacity="0"/>
<stop offset="1" stop-color="#FAFAFA" stop-opacity="0.2"/>
</linearGradient>
<clipPath id="clip0_2068_973">
<path d="M370 146C370 139.373 375.373 134 382 134H458C464.627 134 470 139.373 470 146V222C470 228.627 464.627 234 458 234H382C375.373 234 370 228.627 370 222V146Z" fill="white"/>
</clipPath>
<clipPath id="clip1_2068_973">
<path d="M154 146C154 139.373 159.373 134 166 134H242C248.627 134 254 139.373 254 146V222C254 228.627 248.627 234 242 234H166C159.373 234 154 228.627 154 222V146Z" fill="white"/>
</clipPath>
<clipPath id="clip2_2068_973">
<path d="M478 92C478 85.3726 483.373 80 490 80H566C572.627 80 578 85.3726 578 92V168C578 174.627 572.627 180 566 180H490C483.373 180 478 174.627 478 168V92Z" fill="white"/>
</clipPath>
<clipPath id="clip3_2068_973">
<path d="M262 92C262 85.3726 267.373 80 274 80H350C356.627 80 362 85.3726 362 92V168C362 174.627 356.627 180 350 180H274C267.373 180 262 174.627 262 168V92Z" fill="white"/>
</clipPath>
<clipPath id="clip4_2068_973">
<path d="M262 200C262 193.373 267.373 188 274 188H350C356.627 188 362 193.373 362 200V276C362 282.627 356.627 288 350 288H274C267.373 288 262 282.627 262 276V200Z" fill="white"/>
</clipPath>
</defs>
</svg>
