<svg width="517" height="372" viewBox="0 0 517 372" fill="none" xmlns="http://www.w3.org/2000/svg">
<g filter="url(#filter0_i_2068_1003)">
<path d="M64 49C64 42.3726 69.3726 37 76 37H345C351.627 37 357 42.3726 357 49V89C357 95.6274 351.627 101 345 101H76C69.3726 101 64 95.6274 64 89V49Z" fill="#FAFAFA" fill-opacity="0.02"/>
<path d="M64.5 49C64.5 42.6487 69.6487 37.5 76 37.5H345C351.351 37.5 356.5 42.6487 356.5 49V89C356.5 95.3513 351.351 100.5 345 100.5H76C69.6487 100.5 64.5 95.3513 64.5 89V49Z" stroke="white" stroke-opacity="0.2"/>
<path d="M83.1122 64L80.2884 53.8182H81.9041L83.8878 61.7031H83.9822L86.0455 53.8182H87.6463L89.7095 61.7081H89.804L91.7827 53.8182H93.4034L90.5746 64H89.0284L86.8857 56.3736H86.8061L84.6634 64H83.1122ZM97.2241 64.1541C96.4717 64.1541 95.8237 63.9934 95.2802 63.6719C94.7399 63.3471 94.3223 62.8913 94.0273 62.3047C93.7357 61.7147 93.5898 61.0237 93.5898 60.2315C93.5898 59.4493 93.7357 58.7599 94.0273 58.1634C94.3223 57.5668 94.7333 57.1011 95.2603 56.7663C95.7906 56.4316 96.4104 56.2642 97.1197 56.2642C97.5505 56.2642 97.9682 56.3355 98.3725 56.478C98.7769 56.6205 99.1398 56.8442 99.4613 57.1491C99.7828 57.4541 100.036 57.8501 100.222 58.3374C100.408 58.8213 100.5 59.4096 100.5 60.1023V60.6293H94.43V59.5156H99.0437C99.0437 59.1245 98.9641 58.7782 98.805 58.4766C98.646 58.1716 98.4222 57.9313 98.1339 57.7557C97.8488 57.58 97.5141 57.4922 97.1296 57.4922C96.712 57.4922 96.3474 57.5949 96.0359 57.8004C95.7276 58.0026 95.489 58.2678 95.32 58.5959C95.1542 58.9207 95.0714 59.2737 95.0714 59.6548V60.5249C95.0714 61.0353 95.1609 61.4695 95.3398 61.8274C95.5221 62.1854 95.7757 62.4588 96.1005 62.6477C96.4253 62.8333 96.8048 62.9261 97.239 62.9261C97.5207 62.9261 97.7776 62.8864 98.0096 62.8068C98.2416 62.724 98.4421 62.6013 98.6112 62.4389C98.7802 62.2765 98.9094 62.076 98.9989 61.8374L100.406 62.0909C100.293 62.5052 100.091 62.8681 99.7994 63.1797C99.511 63.4879 99.1481 63.7282 98.7106 63.9006C98.2764 64.0696 97.7809 64.1541 97.2241 64.1541ZM107.341 59.4659V64H105.855V56.3636H107.282V57.6065H107.376C107.552 57.2022 107.827 56.8774 108.201 56.6321C108.579 56.3868 109.055 56.2642 109.628 56.2642C110.149 56.2642 110.604 56.3736 110.995 56.5923C111.386 56.8078 111.69 57.1293 111.905 57.5568C112.121 57.9844 112.228 58.513 112.228 59.1428V64H110.742V59.3217C110.742 58.7682 110.598 58.3357 110.309 58.0241C110.021 57.7093 109.625 57.5518 109.121 57.5518C108.776 57.5518 108.47 57.6264 108.201 57.7756C107.936 57.9247 107.726 58.1435 107.57 58.4318C107.417 58.7169 107.341 59.0616 107.341 59.4659ZM117.513 64.1541C116.761 64.1541 116.113 63.9934 115.569 63.6719C115.029 63.3471 114.611 62.8913 114.316 62.3047C114.025 61.7147 113.879 61.0237 113.879 60.2315C113.879 59.4493 114.025 58.7599 114.316 58.1634C114.611 57.5668 115.022 57.1011 115.549 56.7663C116.08 56.4316 116.699 56.2642 117.409 56.2642C117.84 56.2642 118.257 56.3355 118.662 56.478C119.066 56.6205 119.429 56.8442 119.75 57.1491C120.072 57.4541 120.325 57.8501 120.511 58.3374C120.697 58.8213 120.789 59.4096 120.789 60.1023V60.6293H114.719V59.5156H119.333C119.333 59.1245 119.253 58.7782 119.094 58.4766C118.935 58.1716 118.711 57.9313 118.423 57.7557C118.138 57.58 117.803 57.4922 117.419 57.4922C117.001 57.4922 116.636 57.5949 116.325 57.8004C116.017 58.0026 115.778 58.2678 115.609 58.5959C115.443 58.9207 115.36 59.2737 115.36 59.6548V60.5249C115.36 61.0353 115.45 61.4695 115.629 61.8274C115.811 62.1854 116.065 62.4588 116.39 62.6477C116.714 62.8333 117.094 62.9261 117.528 62.9261C117.81 62.9261 118.067 62.8864 118.299 62.8068C118.531 62.724 118.731 62.6013 118.9 62.4389C119.069 62.2765 119.199 62.076 119.288 61.8374L120.695 62.0909C120.582 62.5052 120.38 62.8681 120.088 63.1797C119.8 63.4879 119.437 63.7282 119 63.9006C118.565 64.0696 118.07 64.1541 117.513 64.1541ZM125.73 64.1541C124.978 64.1541 124.33 63.9934 123.786 63.6719C123.246 63.3471 122.828 62.8913 122.533 62.3047C122.242 61.7147 122.096 61.0237 122.096 60.2315C122.096 59.4493 122.242 58.7599 122.533 58.1634C122.828 57.5668 123.239 57.1011 123.766 56.7663C124.296 56.4316 124.916 56.2642 125.626 56.2642C126.056 56.2642 126.474 56.3355 126.878 56.478C127.283 56.6205 127.646 56.8442 127.967 57.1491C128.289 57.4541 128.542 57.8501 128.728 58.3374C128.913 58.8213 129.006 59.4096 129.006 60.1023V60.6293H122.936V59.5156H127.55C127.55 59.1245 127.47 58.7782 127.311 58.4766C127.152 58.1716 126.928 57.9313 126.64 57.7557C126.355 57.58 126.02 57.4922 125.635 57.4922C125.218 57.4922 124.853 57.5949 124.542 57.8004C124.233 58.0026 123.995 58.2678 123.826 58.5959C123.66 58.9207 123.577 59.2737 123.577 59.6548V60.5249C123.577 61.0353 123.667 61.4695 123.846 61.8274C124.028 62.1854 124.282 62.4588 124.606 62.6477C124.931 62.8333 125.311 62.9261 125.745 62.9261C126.027 62.9261 126.283 62.8864 126.515 62.8068C126.747 62.724 126.948 62.6013 127.117 62.4389C127.286 62.2765 127.415 62.076 127.505 61.8374L128.912 62.0909C128.799 62.5052 128.597 62.8681 128.305 63.1797C128.017 63.4879 127.654 63.7282 127.216 63.9006C126.782 64.0696 126.287 64.1541 125.73 64.1541ZM133.514 64.1491C132.898 64.1491 132.348 63.9917 131.864 63.6768C131.383 63.3587 131.005 62.9062 130.73 62.3196C130.458 61.7296 130.322 61.022 130.322 60.1967C130.322 59.3714 130.46 58.6655 130.735 58.0788C131.013 57.4922 131.395 57.0431 131.879 56.7315C132.362 56.42 132.911 56.2642 133.524 56.2642C133.998 56.2642 134.379 56.3438 134.668 56.5028C134.959 56.6586 135.185 56.8409 135.344 57.0497C135.506 57.2585 135.632 57.4425 135.722 57.6016H135.811V53.8182H137.298V64H135.846V62.8118H135.722C135.632 62.9742 135.503 63.1598 135.334 63.3686C135.168 63.5774 134.939 63.7597 134.648 63.9155C134.356 64.0713 133.978 64.1491 133.514 64.1491ZM133.842 62.8814C134.27 62.8814 134.631 62.7687 134.926 62.5433C135.224 62.3146 135.45 61.9981 135.602 61.5938C135.758 61.1894 135.836 60.7187 135.836 60.1818C135.836 59.6515 135.76 59.1875 135.607 58.7898C135.455 58.392 135.231 58.0821 134.936 57.8601C134.641 57.638 134.277 57.527 133.842 57.527C133.395 57.527 133.022 57.643 132.724 57.875C132.425 58.107 132.2 58.4235 132.048 58.8246C131.898 59.2256 131.824 59.678 131.824 60.1818C131.824 60.6922 131.9 61.1513 132.053 61.5589C132.205 61.9666 132.43 62.2898 132.729 62.5284C133.03 62.7637 133.402 62.8814 133.842 62.8814ZM146.689 56.3636V57.5568H142.518V56.3636H146.689ZM143.636 54.5341H145.123V61.7578C145.123 62.0462 145.166 62.2633 145.252 62.4091C145.338 62.5516 145.449 62.6494 145.585 62.7024C145.724 62.7521 145.875 62.777 146.038 62.777C146.157 62.777 146.261 62.7687 146.351 62.7521C146.44 62.7356 146.51 62.7223 146.56 62.7124L146.828 63.9403C146.742 63.9735 146.619 64.0066 146.46 64.0398C146.301 64.0762 146.102 64.0961 145.864 64.0994C145.473 64.1061 145.108 64.0365 144.77 63.8906C144.432 63.7448 144.158 63.5194 143.95 63.2145C143.741 62.9096 143.636 62.5268 143.636 62.0661V54.5341ZM151.468 64.1541C150.752 64.1541 150.127 63.9901 149.594 63.6619C149.06 63.3338 148.646 62.8748 148.351 62.2848C148.056 61.6948 147.908 61.0054 147.908 60.2166C147.908 59.4245 148.056 58.7318 148.351 58.1385C148.646 57.5452 149.06 57.0845 149.594 56.7564C150.127 56.4283 150.752 56.2642 151.468 56.2642C152.184 56.2642 152.809 56.4283 153.342 56.7564C153.876 57.0845 154.29 57.5452 154.585 58.1385C154.88 58.7318 155.028 59.4245 155.028 60.2166C155.028 61.0054 154.88 61.6948 154.585 62.2848C154.29 62.8748 153.876 63.3338 153.342 63.6619C152.809 63.9901 152.184 64.1541 151.468 64.1541ZM151.473 62.9062C151.937 62.9062 152.321 62.7836 152.626 62.5384C152.931 62.2931 153.157 61.9666 153.302 61.5589C153.452 61.1513 153.526 60.7022 153.526 60.2116C153.526 59.7244 153.452 59.277 153.302 58.8693C153.157 58.4583 152.931 58.1286 152.626 57.88C152.321 57.6314 151.937 57.5071 151.473 57.5071C151.006 57.5071 150.618 57.6314 150.309 57.88C150.005 58.1286 149.778 58.4583 149.628 58.8693C149.483 59.277 149.41 59.7244 149.41 60.2116C149.41 60.7022 149.483 61.1513 149.628 61.5589C149.778 61.9666 150.005 62.2931 150.309 62.5384C150.618 62.7836 151.006 62.9062 151.473 62.9062ZM165.229 60.8331V56.3636H166.721V64H165.259V62.6776H165.18C165.004 63.0852 164.722 63.425 164.334 63.6967C163.95 63.9652 163.471 64.0994 162.898 64.0994C162.407 64.0994 161.973 63.9917 161.595 63.7763C161.22 63.5575 160.925 63.2344 160.71 62.8068C160.498 62.3793 160.392 61.8506 160.392 61.2209V56.3636H161.878V61.0419C161.878 61.5623 162.023 61.9766 162.311 62.2848C162.599 62.593 162.974 62.7472 163.434 62.7472C163.713 62.7472 163.99 62.6776 164.265 62.5384C164.543 62.3991 164.773 62.1887 164.956 61.907C165.141 61.6252 165.233 61.2673 165.229 60.8331ZM168.718 66.8636V56.3636H170.17V57.6016H170.294C170.38 57.4425 170.504 57.2585 170.667 57.0497C170.829 56.8409 171.055 56.6586 171.343 56.5028C171.631 56.3438 172.013 56.2642 172.487 56.2642C173.103 56.2642 173.653 56.42 174.137 56.7315C174.621 57.0431 175 57.4922 175.276 58.0788C175.554 58.6655 175.693 59.3714 175.693 60.1967C175.693 61.022 175.556 61.7296 175.281 62.3196C175.005 62.9062 174.628 63.3587 174.147 63.6768C173.666 63.9917 173.118 64.1491 172.501 64.1491C172.037 64.1491 171.658 64.0713 171.363 63.9155C171.071 63.7597 170.843 63.5774 170.677 63.3686C170.511 63.1598 170.384 62.9742 170.294 62.8118H170.205V66.8636H168.718ZM170.175 60.1818C170.175 60.7187 170.253 61.1894 170.408 61.5938C170.564 61.9981 170.79 62.3146 171.085 62.5433C171.379 62.7687 171.741 62.8814 172.168 62.8814C172.612 62.8814 172.984 62.7637 173.282 62.5284C173.58 62.2898 173.806 61.9666 173.958 61.5589C174.114 61.1513 174.192 60.6922 174.192 60.1818C174.192 59.678 174.116 59.2256 173.963 58.8246C173.814 58.4235 173.589 58.107 173.287 57.875C172.989 57.643 172.616 57.527 172.168 57.527C171.737 57.527 171.373 57.638 171.075 57.8601C170.78 58.0821 170.556 58.392 170.403 58.7898C170.251 59.1875 170.175 59.6515 170.175 60.1818ZM180.217 64.1491C179.601 64.1491 179.051 63.9917 178.567 63.6768C178.086 63.3587 177.708 62.9062 177.433 62.3196C177.161 61.7296 177.026 61.022 177.026 60.1967C177.026 59.3714 177.163 58.6655 177.438 58.0788C177.717 57.4922 178.098 57.0431 178.582 56.7315C179.066 56.42 179.614 56.2642 180.227 56.2642C180.701 56.2642 181.082 56.3438 181.371 56.5028C181.662 56.6586 181.888 56.8409 182.047 57.0497C182.209 57.2585 182.335 57.4425 182.425 57.6016H182.514V53.8182H184.001V64H182.549V62.8118H182.425C182.335 62.9742 182.206 63.1598 182.037 63.3686C181.871 63.5774 181.643 63.7597 181.351 63.9155C181.059 64.0713 180.681 64.1491 180.217 64.1491ZM180.545 62.8814C180.973 62.8814 181.334 62.7687 181.629 62.5433C181.928 62.3146 182.153 61.9981 182.305 61.5938C182.461 61.1894 182.539 60.7187 182.539 60.1818C182.539 59.6515 182.463 59.1875 182.31 58.7898C182.158 58.392 181.934 58.0821 181.639 57.8601C181.344 57.638 180.98 57.527 180.545 57.527C180.098 57.527 179.725 57.643 179.427 57.875C179.129 58.107 178.903 58.4235 178.751 58.8246C178.602 59.2256 178.527 59.678 178.527 60.1818C178.527 60.6922 178.603 61.1513 178.756 61.5589C178.908 61.9666 179.134 62.2898 179.432 62.5284C179.733 62.7637 180.105 62.8814 180.545 62.8814ZM188.345 64.169C187.861 64.169 187.423 64.0795 187.032 63.9006C186.641 63.7183 186.331 63.4548 186.102 63.1101C185.877 62.7654 185.764 62.3428 185.764 61.8423C185.764 61.4115 185.847 61.0568 186.013 60.7784C186.179 60.5 186.402 60.2796 186.684 60.1172C186.966 59.9548 187.281 59.8321 187.629 59.7493C187.977 59.6664 188.331 59.6035 188.693 59.5604C189.15 59.5073 189.521 59.4643 189.806 59.4311C190.091 59.3946 190.298 59.3366 190.428 59.2571C190.557 59.1776 190.622 59.0483 190.622 58.8693V58.8345C190.622 58.4003 190.499 58.0639 190.254 57.8253C190.012 57.5866 189.651 57.4673 189.17 57.4673C188.669 57.4673 188.275 57.5784 187.987 57.8004C187.702 58.0192 187.504 58.2628 187.395 58.5312L185.998 58.2131C186.164 57.7491 186.406 57.3745 186.724 57.0895C187.045 56.8011 187.415 56.5923 187.833 56.4631C188.25 56.3305 188.689 56.2642 189.15 56.2642C189.455 56.2642 189.778 56.3007 190.119 56.3736C190.464 56.4432 190.786 56.5724 191.084 56.7614C191.386 56.9503 191.633 57.2204 191.825 57.5717C192.017 57.9197 192.113 58.3722 192.113 58.929V64H190.661V62.956H190.602C190.506 63.1482 190.361 63.3371 190.169 63.5227C189.977 63.7083 189.73 63.8625 189.428 63.9851C189.127 64.1077 188.766 64.169 188.345 64.169ZM188.668 62.9759C189.079 62.9759 189.43 62.8946 189.722 62.7322C190.017 62.5698 190.24 62.3577 190.393 62.0959C190.549 61.8307 190.627 61.5473 190.627 61.2457V60.2614C190.574 60.3144 190.471 60.3641 190.318 60.4105C190.169 60.4536 189.999 60.4917 189.806 60.5249C189.614 60.5547 189.427 60.5829 189.244 60.6094C189.062 60.6326 188.91 60.6525 188.787 60.669C188.499 60.7055 188.235 60.7668 187.997 60.853C187.761 60.9392 187.572 61.0634 187.43 61.2259C187.291 61.3849 187.221 61.5971 187.221 61.8622C187.221 62.2301 187.357 62.5085 187.629 62.6974C187.901 62.883 188.247 62.9759 188.668 62.9759ZM197.658 56.3636V57.5568H193.487V56.3636H197.658ZM194.605 54.5341H196.092V61.7578C196.092 62.0462 196.135 62.2633 196.221 62.4091C196.307 62.5516 196.418 62.6494 196.554 62.7024C196.693 62.7521 196.844 62.777 197.006 62.777C197.126 62.777 197.23 62.7687 197.32 62.7521C197.409 62.7356 197.479 62.7223 197.528 62.7124L197.797 63.9403C197.711 63.9735 197.588 64.0066 197.429 64.0398C197.27 64.0762 197.071 64.0961 196.832 64.0994C196.441 64.1061 196.077 64.0365 195.739 63.8906C195.401 63.7448 195.127 63.5194 194.918 63.2145C194.71 62.9096 194.605 62.5268 194.605 62.0661V54.5341ZM202.511 64.1541C201.759 64.1541 201.111 63.9934 200.567 63.6719C200.027 63.3471 199.609 62.8913 199.314 62.3047C199.023 61.7147 198.877 61.0237 198.877 60.2315C198.877 59.4493 199.023 58.7599 199.314 58.1634C199.609 57.5668 200.02 57.1011 200.547 56.7663C201.078 56.4316 201.698 56.2642 202.407 56.2642C202.838 56.2642 203.255 56.3355 203.66 56.478C204.064 56.6205 204.427 56.8442 204.748 57.1491C205.07 57.4541 205.323 57.8501 205.509 58.3374C205.695 58.8213 205.787 59.4096 205.787 60.1023V60.6293H199.717V59.5156H204.331C204.331 59.1245 204.251 58.7782 204.092 58.4766C203.933 58.1716 203.709 57.9313 203.421 57.7557C203.136 57.58 202.801 57.4922 202.417 57.4922C201.999 57.4922 201.635 57.5949 201.323 57.8004C201.015 58.0026 200.776 58.2678 200.607 58.5959C200.441 58.9207 200.358 59.2737 200.358 59.6548V60.5249C200.358 61.0353 200.448 61.4695 200.627 61.8274C200.809 62.1854 201.063 62.4588 201.388 62.6477C201.712 62.8333 202.092 62.9261 202.526 62.9261C202.808 62.9261 203.065 62.8864 203.297 62.8068C203.529 62.724 203.729 62.6013 203.898 62.4389C204.067 62.2765 204.197 62.076 204.286 61.8374L205.693 62.0909C205.58 62.5052 205.378 62.8681 205.086 63.1797C204.798 63.4879 204.435 63.7282 203.998 63.9006C203.564 64.0696 203.068 64.1541 202.511 64.1541ZM214.706 56.3636V57.5568H210.535V56.3636H214.706ZM211.654 54.5341H213.14V61.7578C213.14 62.0462 213.184 62.2633 213.27 62.4091C213.356 62.5516 213.467 62.6494 213.603 62.7024C213.742 62.7521 213.893 62.777 214.055 62.777C214.175 62.777 214.279 62.7687 214.368 62.7521C214.458 62.7356 214.528 62.7223 214.577 62.7124L214.846 63.9403C214.76 63.9735 214.637 64.0066 214.478 64.0398C214.319 64.0762 214.12 64.0961 213.881 64.0994C213.49 64.1061 213.126 64.0365 212.787 63.8906C212.449 63.7448 212.176 63.5194 211.967 63.2145C211.758 62.9096 211.654 62.5268 211.654 62.0661V54.5341ZM218.001 59.4659V64H216.515V53.8182H217.982V57.6065H218.076C218.255 57.1955 218.528 56.8691 218.896 56.6271C219.264 56.3852 219.745 56.2642 220.338 56.2642C220.862 56.2642 221.319 56.3719 221.71 56.5874C222.105 56.8028 222.41 57.1243 222.625 57.5518C222.844 57.9761 222.953 58.5064 222.953 59.1428V64H221.467V59.3217C221.467 58.7616 221.322 58.3274 221.034 58.0192C220.746 57.7076 220.345 57.5518 219.831 57.5518C219.48 57.5518 219.165 57.6264 218.886 57.7756C218.611 57.9247 218.394 58.1435 218.235 58.4318C218.079 58.7169 218.001 59.0616 218.001 59.4659ZM224.937 64V56.3636H226.423V64H224.937ZM225.688 55.1854C225.429 55.1854 225.207 55.0992 225.021 54.9268C224.839 54.7512 224.748 54.5424 224.748 54.3004C224.748 54.0552 224.839 53.8464 225.021 53.674C225.207 53.4983 225.429 53.4105 225.688 53.4105C225.946 53.4105 226.166 53.4983 226.349 53.674C226.534 53.8464 226.627 54.0552 226.627 54.3004C226.627 54.5424 226.534 54.7512 226.349 54.9268C226.166 55.0992 225.946 55.1854 225.688 55.1854ZM234.145 58.228L232.798 58.4666C232.742 58.2943 232.652 58.1302 232.53 57.9744C232.41 57.8187 232.248 57.6911 232.042 57.5916C231.837 57.4922 231.58 57.4425 231.272 57.4425C230.851 57.4425 230.5 57.5369 230.218 57.7259C229.936 57.9115 229.795 58.1518 229.795 58.4467C229.795 58.7019 229.89 58.9074 230.079 59.0632C230.268 59.219 230.573 59.3466 230.993 59.446L232.206 59.7244C232.909 59.8868 233.433 60.1371 233.778 60.4751C234.122 60.8132 234.295 61.2524 234.295 61.7926C234.295 62.25 234.162 62.6577 233.897 63.0156C233.635 63.3703 233.269 63.6487 232.798 63.8509C232.331 64.053 231.789 64.1541 231.172 64.1541C230.317 64.1541 229.62 63.9718 229.079 63.6072C228.539 63.2393 228.208 62.7173 228.085 62.0412L229.522 61.8224C229.611 62.197 229.795 62.4804 230.074 62.6726C230.352 62.8615 230.715 62.956 231.162 62.956C231.65 62.956 232.039 62.8549 232.331 62.6527C232.622 62.4472 232.768 62.197 232.768 61.902C232.768 61.6634 232.679 61.4628 232.5 61.3004C232.324 61.138 232.054 61.0154 231.689 60.9325L230.397 60.6491C229.684 60.4867 229.157 60.2282 228.816 59.8736C228.478 59.5189 228.309 59.0698 228.309 58.5263C228.309 58.0755 228.435 57.6811 228.687 57.343C228.939 57.005 229.287 56.7415 229.731 56.5526C230.175 56.3603 230.684 56.2642 231.257 56.2642C232.082 56.2642 232.732 56.4432 233.206 56.8011C233.68 57.1558 233.993 57.6314 234.145 58.228ZM241.121 59.4659V64H239.634V53.8182H241.101V57.6065H241.195C241.374 57.1955 241.648 56.8691 242.015 56.6271C242.383 56.3852 242.864 56.2642 243.457 56.2642C243.981 56.2642 244.438 56.3719 244.829 56.5874C245.224 56.8028 245.529 57.1243 245.744 57.5518C245.963 57.9761 246.072 58.5064 246.072 59.1428V64H244.586V59.3217C244.586 58.7616 244.442 58.3274 244.153 58.0192C243.865 57.7076 243.464 57.5518 242.95 57.5518C242.599 57.5518 242.284 57.6264 242.006 57.7756C241.73 57.9247 241.513 58.1435 241.354 58.4318C241.198 58.7169 241.121 59.0616 241.121 59.4659ZM251.347 64.1541C250.595 64.1541 249.947 63.9934 249.403 63.6719C248.863 63.3471 248.445 62.8913 248.15 62.3047C247.859 61.7147 247.713 61.0237 247.713 60.2315C247.713 59.4493 247.859 58.7599 248.15 58.1634C248.445 57.5668 248.856 57.1011 249.383 56.7663C249.914 56.4316 250.533 56.2642 251.243 56.2642C251.674 56.2642 252.091 56.3355 252.496 56.478C252.9 56.6205 253.263 56.8442 253.584 57.1491C253.906 57.4541 254.159 57.8501 254.345 58.3374C254.531 58.8213 254.623 59.4096 254.623 60.1023V60.6293H248.553V59.5156H253.167C253.167 59.1245 253.087 58.7782 252.928 58.4766C252.769 58.1716 252.545 57.9313 252.257 57.7557C251.972 57.58 251.637 57.4922 251.253 57.4922C250.835 57.4922 250.47 57.5949 250.159 57.8004C249.851 58.0026 249.612 58.2678 249.443 58.5959C249.277 58.9207 249.194 59.2737 249.194 59.6548V60.5249C249.194 61.0353 249.284 61.4695 249.463 61.8274C249.645 62.1854 249.899 62.4588 250.224 62.6477C250.548 62.8333 250.928 62.9261 251.362 62.9261C251.644 62.9261 251.901 62.8864 252.133 62.8068C252.365 62.724 252.565 62.6013 252.734 62.4389C252.903 62.2765 253.032 62.076 253.122 61.8374L254.529 62.0909C254.416 62.5052 254.214 62.8681 253.922 63.1797C253.634 63.4879 253.271 63.7282 252.834 63.9006C252.399 64.0696 251.904 64.1541 251.347 64.1541ZM258.495 64.169C258.011 64.169 257.574 64.0795 257.183 63.9006C256.791 63.7183 256.482 63.4548 256.253 63.1101C256.027 62.7654 255.915 62.3428 255.915 61.8423C255.915 61.4115 255.998 61.0568 256.163 60.7784C256.329 60.5 256.553 60.2796 256.835 60.1172C257.116 59.9548 257.431 59.8321 257.779 59.7493C258.127 59.6664 258.482 59.6035 258.843 59.5604C259.3 59.5073 259.672 59.4643 259.957 59.4311C260.242 59.3946 260.449 59.3366 260.578 59.2571C260.707 59.1776 260.772 59.0483 260.772 58.8693V58.8345C260.772 58.4003 260.649 58.0639 260.404 57.8253C260.162 57.5866 259.801 57.4673 259.32 57.4673C258.82 57.4673 258.425 57.5784 258.137 57.8004C257.852 58.0192 257.655 58.2628 257.545 58.5312L256.148 58.2131C256.314 57.7491 256.556 57.3745 256.874 57.0895C257.196 56.8011 257.565 56.5923 257.983 56.4631C258.401 56.3305 258.84 56.2642 259.3 56.2642C259.605 56.2642 259.929 56.3007 260.27 56.3736C260.615 56.4432 260.936 56.5724 261.234 56.7614C261.536 56.9503 261.783 57.2204 261.975 57.5717C262.167 57.9197 262.263 58.3722 262.263 58.929V64H260.812V62.956H260.752C260.656 63.1482 260.512 63.3371 260.32 63.5227C260.127 63.7083 259.88 63.8625 259.579 63.9851C259.277 64.1077 258.916 64.169 258.495 64.169ZM258.818 62.9759C259.229 62.9759 259.58 62.8946 259.872 62.7322C260.167 62.5698 260.391 62.3577 260.543 62.0959C260.699 61.8307 260.777 61.5473 260.777 61.2457V60.2614C260.724 60.3144 260.621 60.3641 260.469 60.4105C260.32 60.4536 260.149 60.4917 259.957 60.5249C259.764 60.5547 259.577 60.5829 259.395 60.6094C259.213 60.6326 259.06 60.6525 258.938 60.669C258.649 60.7055 258.386 60.7668 258.147 60.853C257.912 60.9392 257.723 61.0634 257.58 61.2259C257.441 61.3849 257.371 61.5971 257.371 61.8622C257.371 62.2301 257.507 62.5085 257.779 62.6974C258.051 62.883 258.397 62.9759 258.818 62.9759ZM267.102 64.1491C266.486 64.1491 265.935 63.9917 265.452 63.6768C264.971 63.3587 264.593 62.9062 264.318 62.3196C264.046 61.7296 263.91 61.022 263.91 60.1967C263.91 59.3714 264.048 58.6655 264.323 58.0788C264.601 57.4922 264.983 57.0431 265.466 56.7315C265.95 56.42 266.499 56.2642 267.112 56.2642C267.586 56.2642 267.967 56.3438 268.256 56.5028C268.547 56.6586 268.773 56.8409 268.932 57.0497C269.094 57.2585 269.22 57.4425 269.309 57.6016H269.399V53.8182H270.885V64H269.434V62.8118H269.309C269.22 62.9742 269.091 63.1598 268.922 63.3686C268.756 63.5774 268.527 63.7597 268.236 63.9155C267.944 64.0713 267.566 64.1491 267.102 64.1491ZM267.43 62.8814C267.858 62.8814 268.219 62.7687 268.514 62.5433C268.812 62.3146 269.038 61.9981 269.19 61.5938C269.346 61.1894 269.424 60.7187 269.424 60.1818C269.424 59.6515 269.348 59.1875 269.195 58.7898C269.043 58.392 268.819 58.0821 268.524 57.8601C268.229 57.638 267.864 57.527 267.43 57.527C266.983 57.527 266.61 57.643 266.312 57.875C266.013 58.107 265.788 58.4235 265.635 58.8246C265.486 59.2256 265.412 59.678 265.412 60.1818C265.412 60.6922 265.488 61.1513 265.64 61.5589C265.793 61.9666 266.018 62.2898 266.317 62.5284C266.618 62.7637 266.989 62.8814 267.43 62.8814ZM273.007 64V56.3636H274.494V64H273.007ZM273.758 55.1854C273.499 55.1854 273.277 55.0992 273.092 54.9268C272.909 54.7512 272.818 54.5424 272.818 54.3004C272.818 54.0552 272.909 53.8464 273.092 53.674C273.277 53.4983 273.499 53.4105 273.758 53.4105C274.016 53.4105 274.237 53.4983 274.419 53.674C274.605 53.8464 274.697 54.0552 274.697 54.3004C274.697 54.5424 274.605 54.7512 274.419 54.9268C274.237 55.0992 274.016 55.1854 273.758 55.1854ZM277.98 59.4659V64H276.493V56.3636H277.92V57.6065H278.015C278.19 57.2022 278.465 56.8774 278.84 56.6321C279.218 56.3868 279.693 56.2642 280.267 56.2642C280.787 56.2642 281.243 56.3736 281.634 56.5923C282.025 56.8078 282.328 57.1293 282.544 57.5568C282.759 57.9844 282.867 58.513 282.867 59.1428V64H281.381V59.3217C281.381 58.7682 281.236 58.3357 280.948 58.0241C280.66 57.7093 280.264 57.5518 279.76 57.5518C279.415 57.5518 279.108 57.6264 278.84 57.7756C278.575 57.9247 278.364 58.1435 278.209 58.4318C278.056 58.7169 277.98 59.0616 277.98 59.4659ZM288.062 67.0227C287.456 67.0227 286.934 66.9432 286.496 66.7841C286.062 66.625 285.707 66.4145 285.432 66.1527C285.157 65.8909 284.952 65.6042 284.816 65.2926L286.094 64.7656C286.183 64.9115 286.302 65.0656 286.452 65.228C286.604 65.3937 286.809 65.5346 287.068 65.6506C287.33 65.7666 287.666 65.8246 288.077 65.8246C288.641 65.8246 289.106 65.687 289.474 65.4119C289.842 65.1402 290.026 64.706 290.026 64.1094V62.608H289.932C289.842 62.7704 289.713 62.951 289.544 63.1499C289.378 63.3487 289.149 63.5211 288.858 63.6669C288.566 63.8127 288.187 63.8857 287.719 63.8857C287.116 63.8857 286.573 63.7448 286.089 63.4631C285.608 63.178 285.227 62.7588 284.945 62.2053C284.667 61.6484 284.528 60.964 284.528 60.152C284.528 59.34 284.665 58.6439 284.94 58.0639C285.219 57.4839 285.6 57.0398 286.084 56.7315C286.568 56.42 287.116 56.2642 287.729 56.2642C288.203 56.2642 288.586 56.3438 288.878 56.5028C289.169 56.6586 289.396 56.8409 289.559 57.0497C289.724 57.2585 289.852 57.4425 289.942 57.6016H290.051V56.3636H291.508V64.169C291.508 64.8253 291.355 65.3639 291.05 65.7848C290.745 66.2057 290.333 66.5173 289.812 66.7195C289.295 66.9216 288.712 67.0227 288.062 67.0227ZM288.047 62.6527C288.475 62.6527 288.836 62.5533 289.131 62.3544C289.43 62.1522 289.655 61.8639 289.807 61.4893C289.963 61.1115 290.041 60.6591 290.041 60.1321C290.041 59.6184 289.965 59.166 289.812 58.7749C289.66 58.3838 289.436 58.0788 289.141 57.8601C288.846 57.638 288.482 57.527 288.047 57.527C287.6 57.527 287.227 57.643 286.929 57.875C286.631 58.1037 286.405 58.4152 286.253 58.8097C286.104 59.2041 286.029 59.6449 286.029 60.1321C286.029 60.6326 286.105 61.0717 286.258 61.4496C286.41 61.8274 286.635 62.1224 286.934 62.3345C287.235 62.5466 287.607 62.6527 288.047 62.6527ZM297.326 64V53.8182H298.812V57.6016H298.902C298.988 57.4425 299.112 57.2585 299.275 57.0497C299.437 56.8409 299.662 56.6586 299.951 56.5028C300.239 56.3438 300.62 56.2642 301.094 56.2642C301.711 56.2642 302.261 56.42 302.745 56.7315C303.229 57.0431 303.608 57.4922 303.883 58.0788C304.162 58.6655 304.301 59.3714 304.301 60.1967C304.301 61.022 304.163 61.7296 303.888 62.3196C303.613 62.9062 303.235 63.3587 302.755 63.6768C302.274 63.9917 301.725 64.1491 301.109 64.1491C300.645 64.1491 300.266 64.0713 299.971 63.9155C299.679 63.7597 299.45 63.5774 299.284 63.3686C299.119 63.1598 298.991 62.9742 298.902 62.8118H298.777V64H297.326ZM298.782 60.1818C298.782 60.7187 298.86 61.1894 299.016 61.5938C299.172 61.9981 299.397 62.3146 299.692 62.5433C299.987 62.7687 300.348 62.8814 300.776 62.8814C301.22 62.8814 301.591 62.7637 301.89 62.5284C302.188 62.2898 302.413 61.9666 302.566 61.5589C302.721 61.1513 302.799 60.6922 302.799 60.1818C302.799 59.678 302.723 59.2256 302.571 58.8246C302.422 58.4235 302.196 58.107 301.895 57.875C301.596 57.643 301.223 57.527 300.776 57.527C300.345 57.527 299.98 57.638 299.682 57.8601C299.387 58.0821 299.163 58.392 299.011 58.7898C298.859 59.1875 298.782 59.6515 298.782 60.1818ZM309.261 64.1541C308.509 64.1541 307.861 63.9934 307.317 63.6719C306.777 63.3471 306.359 62.8913 306.064 62.3047C305.773 61.7147 305.627 61.0237 305.627 60.2315C305.627 59.4493 305.773 58.7599 306.064 58.1634C306.359 57.5668 306.77 57.1011 307.297 56.7663C307.828 56.4316 308.448 56.2642 309.157 56.2642C309.588 56.2642 310.005 56.3355 310.41 56.478C310.814 56.6205 311.177 56.8442 311.498 57.1491C311.82 57.4541 312.073 57.8501 312.259 58.3374C312.445 58.8213 312.537 59.4096 312.537 60.1023V60.6293H306.467V59.5156H311.081C311.081 59.1245 311.001 58.7782 310.842 58.4766C310.683 58.1716 310.459 57.9313 310.171 57.7557C309.886 57.58 309.551 57.4922 309.167 57.4922C308.749 57.4922 308.385 57.5949 308.073 57.8004C307.765 58.0026 307.526 58.2678 307.357 58.5959C307.191 58.9207 307.108 59.2737 307.108 59.6548V60.5249C307.108 61.0353 307.198 61.4695 307.377 61.8274C307.559 62.1854 307.813 62.4588 308.138 62.6477C308.462 62.8333 308.842 62.9261 309.276 62.9261C309.558 62.9261 309.815 62.8864 310.047 62.8068C310.279 62.724 310.479 62.6013 310.648 62.4389C310.817 62.2765 310.947 62.076 311.036 61.8374L312.443 62.0909C312.33 62.5052 312.128 62.8681 311.836 63.1797C311.548 63.4879 311.185 63.7282 310.748 63.9006C310.314 64.0696 309.818 64.1541 309.261 64.1541ZM317.821 56.3636V57.5568H313.506V56.3636H317.821ZM314.689 64V55.4787C314.689 55.0014 314.793 54.6053 315.002 54.2905C315.211 53.9723 315.488 53.7353 315.832 53.5795C316.177 53.4205 316.552 53.3409 316.956 53.3409C317.254 53.3409 317.509 53.3658 317.722 53.4155C317.934 53.4619 318.091 53.505 318.194 53.5447L317.846 54.7479C317.776 54.728 317.687 54.7048 317.577 54.6783C317.468 54.6484 317.335 54.6335 317.18 54.6335C316.818 54.6335 316.56 54.723 316.404 54.902C316.252 55.081 316.175 55.3395 316.175 55.6776V64H314.689ZM322.271 64.1541C321.555 64.1541 320.93 63.9901 320.396 63.6619C319.863 63.3338 319.448 62.8748 319.153 62.2848C318.858 61.6948 318.711 61.0054 318.711 60.2166C318.711 59.4245 318.858 58.7318 319.153 58.1385C319.448 57.5452 319.863 57.0845 320.396 56.7564C320.93 56.4283 321.555 56.2642 322.271 56.2642C322.987 56.2642 323.611 56.4283 324.145 56.7564C324.679 57.0845 325.093 57.5452 325.388 58.1385C325.683 58.7318 325.83 59.4245 325.83 60.2166C325.83 61.0054 325.683 61.6948 325.388 62.2848C325.093 62.8748 324.679 63.3338 324.145 63.6619C323.611 63.9901 322.987 64.1541 322.271 64.1541ZM322.276 62.9062C322.74 62.9062 323.124 62.7836 323.429 62.5384C323.734 62.2931 323.959 61.9666 324.105 61.5589C324.254 61.1513 324.329 60.7022 324.329 60.2116C324.329 59.7244 324.254 59.277 324.105 58.8693C323.959 58.4583 323.734 58.1286 323.429 57.88C323.124 57.6314 322.74 57.5071 322.276 57.5071C321.808 57.5071 321.42 57.6314 321.112 57.88C320.807 58.1286 320.58 58.4583 320.431 58.8693C320.285 59.277 320.212 59.7244 320.212 60.2116C320.212 60.7022 320.285 61.1513 320.431 61.5589C320.58 61.9666 320.807 62.2931 321.112 62.5384C321.42 62.7836 321.808 62.9062 322.276 62.9062ZM327.49 64V56.3636H328.926V57.5767H329.006C329.145 57.1657 329.39 56.8426 329.742 56.6072C330.096 56.3686 330.497 56.2493 330.945 56.2493C331.038 56.2493 331.147 56.2526 331.273 56.2592C331.402 56.2659 331.503 56.2741 331.576 56.2841V57.706C331.517 57.6894 331.41 57.6712 331.258 57.6513C331.106 57.6281 330.953 57.6165 330.801 57.6165C330.449 57.6165 330.136 57.6911 329.861 57.8402C329.589 57.986 329.374 58.1899 329.215 58.4517C329.056 58.7102 328.976 59.0052 328.976 59.3366V64H327.49ZM335.88 64.1541C335.128 64.1541 334.48 63.9934 333.936 63.6719C333.396 63.3471 332.979 62.8913 332.684 62.3047C332.392 61.7147 332.246 61.0237 332.246 60.2315C332.246 59.4493 332.392 58.7599 332.684 58.1634C332.979 57.5668 333.39 57.1011 333.917 56.7663C334.447 56.4316 335.067 56.2642 335.776 56.2642C336.207 56.2642 336.624 56.3355 337.029 56.478C337.433 56.6205 337.796 56.8442 338.118 57.1491C338.439 57.4541 338.693 57.8501 338.878 58.3374C339.064 58.8213 339.157 59.4096 339.157 60.1023V60.6293H333.086V59.5156H337.7C337.7 59.1245 337.62 58.7782 337.461 58.4766C337.302 58.1716 337.078 57.9313 336.79 57.7557C336.505 57.58 336.17 57.4922 335.786 57.4922C335.368 57.4922 335.004 57.5949 334.692 57.8004C334.384 58.0026 334.145 58.2678 333.976 58.5959C333.81 58.9207 333.728 59.2737 333.728 59.6548V60.5249C333.728 61.0353 333.817 61.4695 333.996 61.8274C334.178 62.1854 334.432 62.4588 334.757 62.6477C335.082 62.8333 335.461 62.9261 335.895 62.9261C336.177 62.9261 336.434 62.8864 336.666 62.8068C336.898 62.724 337.098 62.6013 337.267 62.4389C337.436 62.2765 337.566 62.076 337.655 61.8374L339.062 62.0909C338.949 62.5052 338.747 62.8681 338.456 63.1797C338.167 63.4879 337.804 63.7282 337.367 63.9006C336.933 64.0696 336.437 64.1541 335.88 64.1541ZM82.4858 73.8182V84H80.9993V73.8182H82.4858ZM86.7079 84.169C86.224 84.169 85.7865 84.0795 85.3954 83.9006C85.0043 83.7183 84.6944 83.4548 84.4657 83.1101C84.2404 82.7654 84.1277 82.3428 84.1277 81.8423C84.1277 81.4115 84.2105 81.0568 84.3762 80.7784C84.542 80.5 84.7657 80.2796 85.0474 80.1172C85.3291 79.9548 85.644 79.8321 85.992 79.7493C86.34 79.6664 86.6947 79.6035 87.0559 79.5604C87.5133 79.5073 87.8845 79.4643 88.1696 79.4311C88.4546 79.3946 88.6618 79.3366 88.791 79.2571C88.9203 79.1776 88.9849 79.0483 88.9849 78.8693V78.8345C88.9849 78.4003 88.8623 78.0639 88.617 77.8253C88.3751 77.5866 88.0138 77.4673 87.5332 77.4673C87.0327 77.4673 86.6383 77.5784 86.35 77.8004C86.0649 78.0192 85.8677 78.2628 85.7583 78.5312L84.3613 78.2131C84.527 77.7491 84.769 77.3745 85.0872 77.0895C85.4087 76.8011 85.7782 76.5923 86.1958 76.4631C86.6135 76.3305 87.0526 76.2642 87.5133 76.2642C87.8182 76.2642 88.1414 76.3007 88.4828 76.3736C88.8275 76.4432 89.149 76.5724 89.4473 76.7614C89.7489 76.9503 89.9958 77.2204 90.188 77.5717C90.3803 77.9197 90.4764 78.3722 90.4764 78.929V84H89.0247V82.956H88.965C88.8689 83.1482 88.7247 83.3371 88.5325 83.5227C88.3403 83.7083 88.0933 83.8625 87.7917 83.9851C87.4901 84.1077 87.1288 84.169 86.7079 84.169ZM87.0311 82.9759C87.4421 82.9759 87.7934 82.8946 88.085 82.7322C88.38 82.5698 88.6038 82.3577 88.7562 82.0959C88.912 81.8307 88.9899 81.5473 88.9899 81.2457V80.2614C88.9368 80.3144 88.8341 80.3641 88.6816 80.4105C88.5325 80.4536 88.3618 80.4917 88.1696 80.5249C87.9773 80.5547 87.7901 80.5829 87.6078 80.6094C87.4255 80.6326 87.273 80.6525 87.1504 80.669C86.862 80.7055 86.5985 80.7668 86.3599 80.853C86.1246 80.9392 85.9357 81.0634 85.7931 81.2259C85.6539 81.3849 85.5843 81.5971 85.5843 81.8622C85.5843 82.2301 85.7202 82.5085 85.992 82.6974C86.2638 82.883 86.6101 82.9759 87.0311 82.9759ZM97.2937 80.8331V76.3636H98.7852V84H97.3235V82.6776H97.244C97.0683 83.0852 96.7866 83.425 96.3988 83.6967C96.0143 83.9652 95.5354 84.0994 94.962 84.0994C94.4715 84.0994 94.0373 83.9917 93.6594 83.7763C93.2849 83.5575 92.9899 83.2344 92.7745 82.8068C92.5624 82.3793 92.4563 81.8506 92.4563 81.2209V76.3636H93.9428V81.0419C93.9428 81.5623 94.087 81.9766 94.3754 82.2848C94.6637 82.593 95.0382 82.7472 95.4989 82.7472C95.7773 82.7472 96.0541 82.6776 96.3292 82.5384C96.6076 82.3991 96.8379 82.1887 97.0202 81.907C97.2058 81.6252 97.297 81.2673 97.2937 80.8331ZM102.269 79.4659V84H100.782V76.3636H102.209V77.6065H102.304C102.479 77.2022 102.755 76.8774 103.129 76.6321C103.507 76.3868 103.983 76.2642 104.556 76.2642C105.076 76.2642 105.532 76.3736 105.923 76.5923C106.314 76.8078 106.617 77.1293 106.833 77.5568C107.048 77.9844 107.156 78.513 107.156 79.1428V84H105.67V79.3217C105.67 78.7682 105.525 78.3357 105.237 78.0241C104.949 77.7093 104.553 77.5518 104.049 77.5518C103.704 77.5518 103.398 77.6264 103.129 77.7756C102.864 77.9247 102.653 78.1435 102.498 78.4318C102.345 78.7169 102.269 79.0616 102.269 79.4659ZM112.366 84.1541C111.627 84.1541 110.991 83.9867 110.457 83.652C109.927 83.3139 109.519 82.8482 109.234 82.255C108.949 81.6617 108.807 80.9822 108.807 80.2166C108.807 79.4411 108.952 78.7566 109.244 78.1634C109.536 77.5668 109.947 77.1011 110.477 76.7663C111.007 76.4316 111.632 76.2642 112.351 76.2642C112.931 76.2642 113.448 76.3719 113.903 76.5874C114.357 76.7995 114.723 77.0978 115.001 77.4822C115.283 77.8667 115.45 78.3158 115.503 78.8295H114.057C113.977 78.4716 113.795 78.1634 113.51 77.9048C113.228 77.6463 112.85 77.517 112.376 77.517C111.962 77.517 111.599 77.6264 111.287 77.8452C110.979 78.0606 110.739 78.3688 110.567 78.7699C110.394 79.1676 110.308 79.6383 110.308 80.1818C110.308 80.7386 110.393 81.2192 110.562 81.6236C110.731 82.0279 110.969 82.3411 111.278 82.5632C111.589 82.7853 111.955 82.8963 112.376 82.8963C112.658 82.8963 112.913 82.8449 113.142 82.7422C113.374 82.6361 113.568 82.4853 113.724 82.2898C113.883 82.0942 113.994 81.8589 114.057 81.5838H115.503C115.45 82.0777 115.29 82.5185 115.021 82.9062C114.753 83.294 114.393 83.599 113.942 83.821C113.495 84.0431 112.97 84.1541 112.366 84.1541ZM118.58 79.4659V84H117.093V73.8182H118.56V77.6065H118.654C118.833 77.1955 119.107 76.8691 119.474 76.6271C119.842 76.3852 120.323 76.2642 120.916 76.2642C121.44 76.2642 121.897 76.3719 122.288 76.5874C122.683 76.8028 122.988 77.1243 123.203 77.5518C123.422 77.9761 123.531 78.5064 123.531 79.1428V84H122.045V79.3217C122.045 78.7616 121.901 78.3274 121.612 78.0192C121.324 77.7076 120.923 77.5518 120.409 77.5518C120.058 77.5518 119.743 77.6264 119.464 77.7756C119.189 77.9247 118.972 78.1435 118.813 78.4318C118.657 78.7169 118.58 79.0616 118.58 79.4659Z" fill="#A1A1AA"/>
</g>
<g filter="url(#filter1_i_2068_1003)">
<path d="M173 180C173 173.373 178.373 168 185 168H446C452.627 168 458 173.373 458 180V220C458 226.627 452.627 232 446 232H185C178.373 232 173 226.627 173 220V180Z" fill="#FAFAFA" fill-opacity="0.02"/>
<path d="M173.5 180C173.5 173.649 178.649 168.5 185 168.5H446C452.351 168.5 457.5 173.649 457.5 180V220C457.5 226.351 452.351 231.5 446 231.5H185C178.649 231.5 173.5 226.351 173.5 220V180Z" stroke="white" stroke-opacity="0.2"/>
<path d="M190.119 195V184.818H191.655V193.678H196.268V195H190.119ZM201.193 195.154C200.44 195.154 199.792 194.993 199.249 194.672C198.709 194.347 198.291 193.891 197.996 193.305C197.704 192.715 197.559 192.024 197.559 191.232C197.559 190.449 197.704 189.76 197.996 189.163C198.291 188.567 198.702 188.101 199.229 187.766C199.759 187.432 200.379 187.264 201.088 187.264C201.519 187.264 201.937 187.335 202.341 187.478C202.746 187.621 203.109 187.844 203.43 188.149C203.752 188.454 204.005 188.85 204.191 189.337C204.376 189.821 204.469 190.41 204.469 191.102V191.629H198.399V190.516H203.012C203.012 190.125 202.933 189.778 202.774 189.477C202.615 189.172 202.391 188.931 202.103 188.756C201.818 188.58 201.483 188.492 201.098 188.492C200.681 188.492 200.316 188.595 200.005 188.8C199.696 189.003 199.458 189.268 199.289 189.596C199.123 189.921 199.04 190.274 199.04 190.655V191.525C199.04 192.035 199.13 192.469 199.309 192.827C199.491 193.185 199.744 193.459 200.069 193.648C200.394 193.833 200.774 193.926 201.208 193.926C201.489 193.926 201.746 193.886 201.978 193.807C202.21 193.724 202.411 193.601 202.58 193.439C202.749 193.277 202.878 193.076 202.968 192.837L204.375 193.091C204.262 193.505 204.06 193.868 203.768 194.18C203.48 194.488 203.117 194.728 202.679 194.901C202.245 195.07 201.75 195.154 201.193 195.154ZM209.683 187.364V188.557H205.512V187.364H209.683ZM206.631 185.534H208.117V192.758C208.117 193.046 208.16 193.263 208.246 193.409C208.332 193.552 208.443 193.649 208.579 193.702C208.719 193.752 208.869 193.777 209.032 193.777C209.151 193.777 209.256 193.769 209.345 193.752C209.434 193.736 209.504 193.722 209.554 193.712L209.822 194.94C209.736 194.973 209.613 195.007 209.454 195.04C209.295 195.076 209.096 195.096 208.858 195.099C208.467 195.106 208.102 195.036 207.764 194.891C207.426 194.745 207.153 194.519 206.944 194.214C206.735 193.91 206.631 193.527 206.631 193.066V185.534ZM215.032 195V187.364H216.459V188.607H216.554C216.713 188.186 216.973 187.857 217.334 187.622C217.696 187.384 218.128 187.264 218.632 187.264C219.142 187.264 219.57 187.384 219.915 187.622C220.263 187.861 220.519 188.189 220.685 188.607H220.765C220.947 188.199 221.237 187.874 221.635 187.632C222.032 187.387 222.506 187.264 223.057 187.264C223.749 187.264 224.314 187.481 224.752 187.915C225.193 188.35 225.413 189.004 225.413 189.879V195H223.927V190.018C223.927 189.501 223.786 189.127 223.504 188.895C223.222 188.663 222.886 188.547 222.495 188.547C222.011 188.547 221.635 188.696 221.366 188.994C221.098 189.289 220.964 189.669 220.964 190.133V195H219.482V189.924C219.482 189.51 219.353 189.177 219.094 188.925C218.836 188.673 218.499 188.547 218.085 188.547C217.803 188.547 217.543 188.621 217.305 188.771C217.069 188.916 216.879 189.12 216.733 189.382C216.59 189.644 216.519 189.947 216.519 190.292V195H215.032ZM230.697 195.154C229.944 195.154 229.296 194.993 228.753 194.672C228.213 194.347 227.795 193.891 227.5 193.305C227.208 192.715 227.062 192.024 227.062 191.232C227.062 190.449 227.208 189.76 227.5 189.163C227.795 188.567 228.206 188.101 228.733 187.766C229.263 187.432 229.883 187.264 230.592 187.264C231.023 187.264 231.441 187.335 231.845 187.478C232.25 187.621 232.612 187.844 232.934 188.149C233.255 188.454 233.509 188.85 233.695 189.337C233.88 189.821 233.973 190.41 233.973 191.102V191.629H227.903V190.516H232.516C232.516 190.125 232.437 189.778 232.278 189.477C232.119 189.172 231.895 188.931 231.607 188.756C231.321 188.58 230.987 188.492 230.602 188.492C230.185 188.492 229.82 188.595 229.509 188.8C229.2 189.003 228.962 189.268 228.793 189.596C228.627 189.921 228.544 190.274 228.544 190.655V191.525C228.544 192.035 228.634 192.469 228.812 192.827C228.995 193.185 229.248 193.459 229.573 193.648C229.898 193.833 230.277 193.926 230.712 193.926C230.993 193.926 231.25 193.886 231.482 193.807C231.714 193.724 231.915 193.601 232.084 193.439C232.253 193.277 232.382 193.076 232.472 192.837L233.879 193.091C233.766 193.505 233.564 193.868 233.272 194.18C232.984 194.488 232.621 194.728 232.183 194.901C231.749 195.07 231.254 195.154 230.697 195.154ZM244.483 197.864V193.812H244.393C244.304 193.974 244.175 194.16 244.006 194.369C243.84 194.577 243.611 194.76 243.32 194.915C243.028 195.071 242.65 195.149 242.186 195.149C241.57 195.149 241.019 194.992 240.536 194.677C240.055 194.359 239.677 193.906 239.402 193.32C239.13 192.73 238.994 192.022 238.994 191.197C238.994 190.371 239.132 189.665 239.407 189.079C239.685 188.492 240.067 188.043 240.55 187.732C241.034 187.42 241.583 187.264 242.196 187.264C242.67 187.264 243.051 187.344 243.339 187.503C243.631 187.659 243.857 187.841 244.016 188.05C244.178 188.259 244.304 188.442 244.393 188.602H244.518V187.364H245.969V197.864H244.483ZM242.514 193.881C242.942 193.881 243.303 193.769 243.598 193.543C243.896 193.315 244.122 192.998 244.274 192.594C244.43 192.189 244.508 191.719 244.508 191.182C244.508 190.652 244.432 190.187 244.279 189.79C244.127 189.392 243.903 189.082 243.608 188.86C243.313 188.638 242.948 188.527 242.514 188.527C242.067 188.527 241.694 188.643 241.396 188.875C241.097 189.107 240.872 189.424 240.719 189.825C240.57 190.226 240.496 190.678 240.496 191.182C240.496 191.692 240.572 192.151 240.724 192.559C240.877 192.967 241.102 193.29 241.401 193.528C241.702 193.764 242.073 193.881 242.514 193.881ZM252.805 191.833V187.364H254.297V195H252.835V193.678H252.756C252.58 194.085 252.298 194.425 251.911 194.697C251.526 194.965 251.047 195.099 250.474 195.099C249.983 195.099 249.549 194.992 249.171 194.776C248.797 194.558 248.502 194.234 248.286 193.807C248.074 193.379 247.968 192.851 247.968 192.221V187.364H249.455V192.042C249.455 192.562 249.599 192.977 249.887 193.285C250.175 193.593 250.55 193.747 251.011 193.747C251.289 193.747 251.566 193.678 251.841 193.538C252.119 193.399 252.35 193.189 252.532 192.907C252.718 192.625 252.809 192.267 252.805 191.833ZM256.294 195V187.364H257.781V195H256.294ZM257.045 186.185C256.786 186.185 256.564 186.099 256.379 185.927C256.196 185.751 256.105 185.542 256.105 185.3C256.105 185.055 256.196 184.846 256.379 184.674C256.564 184.498 256.786 184.411 257.045 184.411C257.303 184.411 257.524 184.498 257.706 184.674C257.892 184.846 257.985 185.055 257.985 185.3C257.985 185.542 257.892 185.751 257.706 185.927C257.524 186.099 257.303 186.185 257.045 186.185ZM262.997 195.154C262.258 195.154 261.622 194.987 261.088 194.652C260.558 194.314 260.15 193.848 259.865 193.255C259.58 192.662 259.438 191.982 259.438 191.217C259.438 190.441 259.583 189.757 259.875 189.163C260.167 188.567 260.578 188.101 261.108 187.766C261.638 187.432 262.263 187.264 262.982 187.264C263.562 187.264 264.079 187.372 264.533 187.587C264.987 187.799 265.354 188.098 265.632 188.482C265.914 188.867 266.081 189.316 266.134 189.83H264.688C264.608 189.472 264.426 189.163 264.141 188.905C263.859 188.646 263.481 188.517 263.007 188.517C262.593 188.517 262.23 188.626 261.918 188.845C261.61 189.061 261.37 189.369 261.197 189.77C261.025 190.168 260.939 190.638 260.939 191.182C260.939 191.739 261.023 192.219 261.192 192.624C261.362 193.028 261.6 193.341 261.908 193.563C262.22 193.785 262.586 193.896 263.007 193.896C263.289 193.896 263.544 193.845 263.773 193.742C264.005 193.636 264.199 193.485 264.354 193.29C264.513 193.094 264.625 192.859 264.688 192.584H266.134C266.081 193.078 265.92 193.518 265.652 193.906C265.384 194.294 265.024 194.599 264.573 194.821C264.126 195.043 263.6 195.154 262.997 195.154ZM269.091 192.41L269.081 190.595H269.34L272.382 187.364H274.162L270.692 191.043H270.458L269.091 192.41ZM267.724 195V184.818H269.21V195H267.724ZM272.546 195L269.812 191.371L270.836 190.332L274.371 195H272.546ZM277.003 184.818V195H275.517V184.818H277.003ZM279.943 197.864C279.721 197.864 279.519 197.845 279.336 197.809C279.154 197.776 279.018 197.739 278.929 197.7L279.287 196.482C279.558 196.554 279.8 196.586 280.012 196.576C280.225 196.566 280.412 196.487 280.574 196.337C280.74 196.188 280.886 195.945 281.012 195.607L281.196 195.099L278.402 187.364H279.993L281.926 193.29H282.006L283.94 187.364H285.536L282.389 196.019C282.243 196.417 282.057 196.753 281.832 197.028C281.607 197.307 281.338 197.516 281.027 197.655C280.715 197.794 280.354 197.864 279.943 197.864ZM290.638 187.364H292.124V195.497C292.124 196.008 292.032 196.438 291.846 196.79C291.664 197.141 291.392 197.408 291.031 197.59C290.673 197.772 290.23 197.864 289.703 197.864C289.65 197.864 289.601 197.864 289.554 197.864C289.504 197.864 289.453 197.862 289.4 197.859V196.581C289.446 196.581 289.488 196.581 289.524 196.581C289.557 196.581 289.596 196.581 289.639 196.581C289.99 196.581 290.244 196.487 290.399 196.298C290.558 196.112 290.638 195.842 290.638 195.487V187.364ZM291.374 186.185C291.115 186.185 290.893 186.099 290.708 185.927C290.525 185.751 290.434 185.542 290.434 185.3C290.434 185.055 290.525 184.846 290.708 184.674C290.893 184.498 291.115 184.411 291.374 184.411C291.632 184.411 291.853 184.498 292.035 184.674C292.221 184.846 292.313 185.055 292.313 185.3C292.313 185.542 292.221 185.751 292.035 185.927C291.853 186.099 291.632 186.185 291.374 186.185ZM298.962 191.833V187.364H300.453V195H298.991V193.678H298.912C298.736 194.085 298.455 194.425 298.067 194.697C297.682 194.965 297.203 195.099 296.63 195.099C296.139 195.099 295.705 194.992 295.327 194.776C294.953 194.558 294.658 194.234 294.442 193.807C294.23 193.379 294.124 192.851 294.124 192.221V187.364H295.611V192.042C295.611 192.562 295.755 192.977 296.043 193.285C296.332 193.593 296.706 193.747 297.167 193.747C297.445 193.747 297.722 193.678 297.997 193.538C298.276 193.399 298.506 193.189 298.688 192.907C298.874 192.625 298.965 192.267 298.962 191.833ZM302.45 195V187.364H303.877V188.607H303.972C304.131 188.186 304.391 187.857 304.752 187.622C305.114 187.384 305.546 187.264 306.05 187.264C306.56 187.264 306.988 187.384 307.333 187.622C307.681 187.861 307.937 188.189 308.103 188.607H308.183C308.365 188.199 308.655 187.874 309.053 187.632C309.45 187.387 309.924 187.264 310.475 187.264C311.167 187.264 311.732 187.481 312.17 187.915C312.611 188.35 312.831 189.004 312.831 189.879V195H311.345V190.018C311.345 189.501 311.204 189.127 310.922 188.895C310.64 188.663 310.304 188.547 309.913 188.547C309.429 188.547 309.053 188.696 308.784 188.994C308.516 189.289 308.382 189.669 308.382 190.133V195H306.9V189.924C306.9 189.51 306.771 189.177 306.512 188.925C306.254 188.673 305.917 188.547 305.503 188.547C305.221 188.547 304.961 188.621 304.722 188.771C304.487 188.916 304.297 189.12 304.151 189.382C304.008 189.644 303.937 189.947 303.937 190.292V195H302.45ZM314.824 197.864V187.364H316.275V188.602H316.4C316.486 188.442 316.61 188.259 316.772 188.05C316.935 187.841 317.16 187.659 317.449 187.503C317.737 187.344 318.118 187.264 318.592 187.264C319.208 187.264 319.759 187.42 320.243 187.732C320.726 188.043 321.106 188.492 321.381 189.079C321.659 189.665 321.799 190.371 321.799 191.197C321.799 192.022 321.661 192.73 321.386 193.32C321.111 193.906 320.733 194.359 320.252 194.677C319.772 194.992 319.223 195.149 318.607 195.149C318.143 195.149 317.763 195.071 317.468 194.915C317.177 194.76 316.948 194.577 316.782 194.369C316.617 194.16 316.489 193.974 316.4 193.812H316.31V197.864H314.824ZM316.28 191.182C316.28 191.719 316.358 192.189 316.514 192.594C316.67 192.998 316.895 193.315 317.19 193.543C317.485 193.769 317.846 193.881 318.274 193.881C318.718 193.881 319.089 193.764 319.387 193.528C319.686 193.29 319.911 192.967 320.064 192.559C320.219 192.151 320.297 191.692 320.297 191.182C320.297 190.678 320.221 190.226 320.069 189.825C319.919 189.424 319.694 189.107 319.392 188.875C319.094 188.643 318.721 188.527 318.274 188.527C317.843 188.527 317.478 188.638 317.18 188.86C316.885 189.082 316.661 189.392 316.509 189.79C316.356 190.187 316.28 190.652 316.28 191.182ZM327.169 195V187.364H328.656V195H327.169ZM327.92 186.185C327.661 186.185 327.439 186.099 327.254 185.927C327.071 185.751 326.98 185.542 326.98 185.3C326.98 185.055 327.071 184.846 327.254 184.674C327.439 184.498 327.661 184.411 327.92 184.411C328.178 184.411 328.399 184.498 328.581 184.674C328.767 184.846 328.86 185.055 328.86 185.3C328.86 185.542 328.767 185.751 328.581 185.927C328.399 186.099 328.178 186.185 327.92 186.185ZM332.142 190.466V195H330.656V187.364H332.082V188.607H332.177C332.353 188.202 332.628 187.877 333.002 187.632C333.38 187.387 333.856 187.264 334.429 187.264C334.949 187.264 335.405 187.374 335.796 187.592C336.187 187.808 336.491 188.129 336.706 188.557C336.921 188.984 337.029 189.513 337.029 190.143V195H335.543V190.322C335.543 189.768 335.398 189.336 335.11 189.024C334.822 188.709 334.426 188.552 333.922 188.552C333.577 188.552 333.271 188.626 333.002 188.776C332.737 188.925 332.527 189.143 332.371 189.432C332.218 189.717 332.142 190.062 332.142 190.466ZM342.587 187.364V188.557H338.416V187.364H342.587ZM339.535 185.534H341.021V192.758C341.021 193.046 341.064 193.263 341.151 193.409C341.237 193.552 341.348 193.649 341.484 193.702C341.623 193.752 341.774 193.777 341.936 193.777C342.055 193.777 342.16 193.769 342.249 193.752C342.339 193.736 342.408 193.722 342.458 193.712L342.727 194.94C342.64 194.973 342.518 195.007 342.359 195.04C342.2 195.076 342.001 195.096 341.762 195.099C341.371 195.106 341.006 195.036 340.668 194.891C340.33 194.745 340.057 194.519 339.848 194.214C339.639 193.91 339.535 193.527 339.535 193.066V185.534ZM347.366 195.154C346.65 195.154 346.026 194.99 345.492 194.662C344.958 194.334 344.544 193.875 344.249 193.285C343.954 192.695 343.807 192.005 343.807 191.217C343.807 190.424 343.954 189.732 344.249 189.138C344.544 188.545 344.958 188.085 345.492 187.756C346.026 187.428 346.65 187.264 347.366 187.264C348.082 187.264 348.707 187.428 349.241 187.756C349.774 188.085 350.189 188.545 350.483 189.138C350.778 189.732 350.926 190.424 350.926 191.217C350.926 192.005 350.778 192.695 350.483 193.285C350.189 193.875 349.774 194.334 349.241 194.662C348.707 194.99 348.082 195.154 347.366 195.154ZM347.371 193.906C347.835 193.906 348.22 193.784 348.525 193.538C348.83 193.293 349.055 192.967 349.201 192.559C349.35 192.151 349.425 191.702 349.425 191.212C349.425 190.724 349.35 190.277 349.201 189.869C349.055 189.458 348.83 189.129 348.525 188.88C348.22 188.631 347.835 188.507 347.371 188.507C346.904 188.507 346.516 188.631 346.208 188.88C345.903 189.129 345.676 189.458 345.527 189.869C345.381 190.277 345.308 190.724 345.308 191.212C345.308 191.702 345.381 192.151 345.527 192.559C345.676 192.967 345.903 193.293 346.208 193.538C346.516 193.784 346.904 193.906 347.371 193.906ZM361.963 187.493C361.91 187.022 361.691 186.658 361.307 186.399C360.922 186.137 360.438 186.006 359.855 186.006C359.437 186.006 359.076 186.073 358.771 186.205C358.466 186.335 358.229 186.513 358.06 186.742C357.894 186.968 357.812 187.224 357.812 187.513C357.812 187.755 357.868 187.964 357.981 188.139C358.097 188.315 358.247 188.462 358.433 188.582C358.622 188.698 358.824 188.795 359.04 188.875C359.255 188.951 359.462 189.014 359.661 189.064L360.655 189.322C360.98 189.402 361.313 189.51 361.655 189.646C361.996 189.781 362.313 189.96 362.604 190.183C362.896 190.405 363.131 190.68 363.31 191.008C363.492 191.336 363.584 191.729 363.584 192.186C363.584 192.763 363.434 193.275 363.136 193.722C362.841 194.17 362.412 194.523 361.849 194.781C361.288 195.04 360.611 195.169 359.815 195.169C359.053 195.169 358.393 195.048 357.836 194.806C357.28 194.564 356.844 194.221 356.529 193.777C356.214 193.33 356.04 192.799 356.007 192.186H357.548C357.578 192.554 357.697 192.861 357.906 193.106C358.118 193.348 358.388 193.528 358.716 193.648C359.048 193.764 359.411 193.822 359.805 193.822C360.239 193.822 360.626 193.754 360.964 193.618C361.305 193.479 361.573 193.286 361.769 193.041C361.965 192.793 362.062 192.503 362.062 192.171C362.062 191.87 361.976 191.623 361.804 191.43C361.635 191.238 361.404 191.079 361.113 190.953C360.824 190.827 360.498 190.716 360.133 190.62L358.93 190.292C358.115 190.07 357.469 189.743 356.991 189.312C356.517 188.882 356.28 188.312 356.28 187.602C356.28 187.016 356.439 186.504 356.758 186.066C357.076 185.629 357.507 185.289 358.05 185.047C358.594 184.802 359.207 184.679 359.89 184.679C360.579 184.679 361.187 184.8 361.714 185.042C362.245 185.284 362.662 185.617 362.967 186.041C363.272 186.462 363.431 186.946 363.444 187.493H361.963ZM367.522 195.169C367.038 195.169 366.601 195.08 366.21 194.901C365.819 194.718 365.509 194.455 365.28 194.11C365.055 193.765 364.942 193.343 364.942 192.842C364.942 192.411 365.025 192.057 365.191 191.778C365.356 191.5 365.58 191.28 365.862 191.117C366.144 190.955 366.458 190.832 366.806 190.749C367.154 190.666 367.509 190.603 367.87 190.56C368.328 190.507 368.699 190.464 368.984 190.431C369.269 190.395 369.476 190.337 369.605 190.257C369.735 190.178 369.799 190.048 369.799 189.869V189.835C369.799 189.4 369.677 189.064 369.431 188.825C369.19 188.587 368.828 188.467 368.348 188.467C367.847 188.467 367.453 188.578 367.164 188.8C366.879 189.019 366.682 189.263 366.573 189.531L365.176 189.213C365.342 188.749 365.583 188.375 365.902 188.089C366.223 187.801 366.593 187.592 367.01 187.463C367.428 187.33 367.867 187.264 368.328 187.264C368.633 187.264 368.956 187.301 369.297 187.374C369.642 187.443 369.963 187.572 370.262 187.761C370.563 187.95 370.81 188.22 371.002 188.572C371.195 188.92 371.291 189.372 371.291 189.929V195H369.839V193.956H369.779C369.683 194.148 369.539 194.337 369.347 194.523C369.155 194.708 368.908 194.862 368.606 194.985C368.305 195.108 367.943 195.169 367.522 195.169ZM367.846 193.976C368.257 193.976 368.608 193.895 368.9 193.732C369.194 193.57 369.418 193.358 369.571 193.096C369.726 192.831 369.804 192.547 369.804 192.246V191.261C369.751 191.314 369.649 191.364 369.496 191.411C369.347 191.454 369.176 191.492 368.984 191.525C368.792 191.555 368.605 191.583 368.422 191.609C368.24 191.633 368.087 191.652 367.965 191.669C367.676 191.705 367.413 191.767 367.174 191.853C366.939 191.939 366.75 192.063 366.608 192.226C366.468 192.385 366.399 192.597 366.399 192.862C366.399 193.23 366.535 193.509 366.806 193.697C367.078 193.883 367.425 193.976 367.846 193.976ZM374.757 190.466V195H373.271V187.364H374.698V188.607H374.792C374.968 188.202 375.243 187.877 375.617 187.632C375.995 187.387 376.471 187.264 377.044 187.264C377.565 187.264 378.02 187.374 378.411 187.592C378.802 187.808 379.106 188.129 379.321 188.557C379.537 188.984 379.644 189.513 379.644 190.143V195H378.158V190.322C378.158 189.768 378.014 189.336 377.725 189.024C377.437 188.709 377.041 188.552 376.537 188.552C376.192 188.552 375.886 188.626 375.617 188.776C375.352 188.925 375.142 189.143 374.986 189.432C374.834 189.717 374.757 190.062 374.757 190.466ZM381.638 195V187.364H383.124V195H381.638ZM382.389 186.185C382.13 186.185 381.908 186.099 381.722 185.927C381.54 185.751 381.449 185.542 381.449 185.3C381.449 185.055 381.54 184.846 381.722 184.674C381.908 184.498 382.13 184.411 382.389 184.411C382.647 184.411 382.868 184.498 383.05 184.674C383.235 184.846 383.328 185.055 383.328 185.3C383.328 185.542 383.235 185.751 383.05 185.927C382.868 186.099 382.647 186.185 382.389 186.185ZM388.689 187.364V188.557H384.518V187.364H388.689ZM385.636 185.534H387.123V192.758C387.123 193.046 387.166 193.263 387.252 193.409C387.338 193.552 387.449 193.649 387.585 193.702C387.724 193.752 387.875 193.777 388.038 193.777C388.157 193.777 388.261 193.769 388.351 193.752C388.44 193.736 388.51 193.722 388.56 193.712L388.828 194.94C388.742 194.973 388.619 195.007 388.46 195.04C388.301 195.076 388.102 195.096 387.864 195.099C387.473 195.106 387.108 195.036 386.77 194.891C386.432 194.745 386.158 194.519 385.95 194.214C385.741 193.91 385.636 193.527 385.636 193.066V185.534ZM391.273 197.864C391.051 197.864 390.849 197.845 390.666 197.809C390.484 197.776 390.348 197.739 390.259 197.7L390.617 196.482C390.888 196.554 391.13 196.586 391.343 196.576C391.555 196.566 391.742 196.487 391.904 196.337C392.07 196.188 392.216 195.945 392.342 195.607L392.526 195.099L389.732 187.364H391.323L393.257 193.29H393.336L395.27 187.364H396.866L393.719 196.019C393.573 196.417 393.387 196.753 393.162 197.028C392.937 197.307 392.668 197.516 392.357 197.655C392.045 197.794 391.684 197.864 391.273 197.864ZM404.19 195.169C403.706 195.169 403.269 195.08 402.878 194.901C402.487 194.718 402.177 194.455 401.948 194.11C401.723 193.765 401.61 193.343 401.61 192.842C401.61 192.411 401.693 192.057 401.859 191.778C402.024 191.5 402.248 191.28 402.53 191.117C402.812 190.955 403.126 190.832 403.474 190.749C403.822 190.666 404.177 190.603 404.538 190.56C404.996 190.507 405.367 190.464 405.652 190.431C405.937 190.395 406.144 190.337 406.273 190.257C406.403 190.178 406.467 190.048 406.467 189.869V189.835C406.467 189.4 406.345 189.064 406.099 188.825C405.857 188.587 405.496 188.467 405.016 188.467C404.515 188.467 404.121 188.578 403.832 188.8C403.547 189.019 403.35 189.263 403.241 189.531L401.844 189.213C402.009 188.749 402.251 188.375 402.57 188.089C402.891 187.801 403.261 187.592 403.678 187.463C404.096 187.33 404.535 187.264 404.996 187.264C405.301 187.264 405.624 187.301 405.965 187.374C406.31 187.443 406.631 187.572 406.93 187.761C407.231 187.95 407.478 188.22 407.67 188.572C407.863 188.92 407.959 189.372 407.959 189.929V195H406.507V193.956H406.447C406.351 194.148 406.207 194.337 406.015 194.523C405.823 194.708 405.576 194.862 405.274 194.985C404.973 195.108 404.611 195.169 404.19 195.169ZM404.513 193.976C404.924 193.976 405.276 193.895 405.567 193.732C405.862 193.57 406.086 193.358 406.239 193.096C406.394 192.831 406.472 192.547 406.472 192.246V191.261C406.419 191.314 406.317 191.364 406.164 191.411C406.015 191.454 405.844 191.492 405.652 191.525C405.46 191.555 405.272 191.583 405.09 191.609C404.908 191.633 404.755 191.652 404.633 191.669C404.344 191.705 404.081 191.767 403.842 191.853C403.607 191.939 403.418 192.063 403.276 192.226C403.136 192.385 403.067 192.597 403.067 192.862C403.067 193.23 403.203 193.509 403.474 193.697C403.746 193.883 404.093 193.976 404.513 193.976ZM411.425 190.466V195H409.939V187.364H411.366V188.607H411.46C411.636 188.202 411.911 187.877 412.285 187.632C412.663 187.387 413.139 187.264 413.712 187.264C414.233 187.264 414.688 187.374 415.079 187.592C415.47 187.808 415.774 188.129 415.989 188.557C416.205 188.984 416.312 189.513 416.312 190.143V195H414.826V190.322C414.826 189.768 414.682 189.336 414.393 189.024C414.105 188.709 413.709 188.552 413.205 188.552C412.86 188.552 412.554 188.626 412.285 188.776C412.02 188.925 411.81 189.143 411.654 189.432C411.501 189.717 411.425 190.062 411.425 190.466ZM421.165 195.149C420.548 195.149 419.998 194.992 419.514 194.677C419.033 194.359 418.656 193.906 418.381 193.32C418.109 192.73 417.973 192.022 417.973 191.197C417.973 190.371 418.11 189.665 418.385 189.079C418.664 188.492 419.045 188.043 419.529 187.732C420.013 187.42 420.561 187.264 421.175 187.264C421.648 187.264 422.03 187.344 422.318 187.503C422.61 187.659 422.835 187.841 422.994 188.05C423.157 188.259 423.282 188.442 423.372 188.602H423.461V184.818H424.948V195H423.496V193.812H423.372C423.282 193.974 423.153 194.16 422.984 194.369C422.818 194.577 422.59 194.76 422.298 194.915C422.006 195.071 421.629 195.149 421.165 195.149ZM421.493 193.881C421.92 193.881 422.282 193.769 422.577 193.543C422.875 193.315 423.1 192.998 423.253 192.594C423.408 192.189 423.486 191.719 423.486 191.182C423.486 190.652 423.41 190.187 423.258 189.79C423.105 189.392 422.881 189.082 422.586 188.86C422.291 188.638 421.927 188.527 421.493 188.527C421.045 188.527 420.672 188.643 420.374 188.875C420.076 189.107 419.85 189.424 419.698 189.825C419.549 190.226 419.474 190.678 419.474 191.182C419.474 191.692 419.55 192.151 419.703 192.559C419.855 192.967 420.081 193.29 420.379 193.528C420.681 193.764 421.052 193.881 421.493 193.881ZM193.634 207.364V208.557H189.318V207.364H193.634ZM190.501 215V206.479C190.501 206.001 190.606 205.605 190.815 205.29C191.023 204.972 191.3 204.735 191.645 204.58C191.99 204.42 192.364 204.341 192.768 204.341C193.067 204.341 193.322 204.366 193.534 204.415C193.746 204.462 193.904 204.505 194.006 204.545L193.658 205.748C193.589 205.728 193.499 205.705 193.39 205.678C193.281 205.648 193.148 205.634 192.992 205.634C192.631 205.634 192.372 205.723 192.217 205.902C192.064 206.081 191.988 206.339 191.988 206.678V215H190.501ZM195.167 215V207.364H196.654V215H195.167ZM195.918 206.185C195.659 206.185 195.437 206.099 195.252 205.927C195.069 205.751 194.978 205.542 194.978 205.3C194.978 205.055 195.069 204.846 195.252 204.674C195.437 204.498 195.659 204.411 195.918 204.411C196.176 204.411 196.397 204.498 196.579 204.674C196.765 204.846 196.858 205.055 196.858 205.3C196.858 205.542 196.765 205.751 196.579 205.927C196.397 206.099 196.176 206.185 195.918 206.185ZM199.827 207.364L201.512 210.337L203.213 207.364H204.838L202.457 211.182L204.858 215H203.232L201.512 212.146L199.797 215H198.166L200.543 211.182L198.196 207.364H199.827ZM210.07 215V207.364H211.556V215H210.07ZM210.82 206.185C210.562 206.185 210.34 206.099 210.154 205.927C209.972 205.751 209.881 205.542 209.881 205.3C209.881 205.055 209.972 204.846 210.154 204.674C210.34 204.498 210.562 204.411 210.82 204.411C211.079 204.411 211.299 204.498 211.482 204.674C211.667 204.846 211.76 205.055 211.76 205.3C211.76 205.542 211.667 205.751 211.482 205.927C211.299 206.099 211.079 206.185 210.82 206.185ZM217.121 207.364V208.557H212.949V207.364H217.121ZM214.068 205.534H215.555V212.758C215.555 213.046 215.598 213.263 215.684 213.409C215.77 213.552 215.881 213.649 216.017 213.702C216.156 213.752 216.307 213.777 216.469 213.777C216.589 213.777 216.693 213.769 216.782 213.752C216.872 213.736 216.942 213.722 216.991 213.712L217.26 214.94C217.174 214.973 217.051 215.007 216.892 215.04C216.733 215.076 216.534 215.096 216.295 215.099C215.904 215.106 215.54 215.036 215.202 214.891C214.863 214.745 214.59 214.519 214.381 214.214C214.172 213.91 214.068 213.527 214.068 213.066V205.534Z" fill="#A1A1AA"/>
</g>
<g filter="url(#filter2_i_2068_1003)">
<path d="M386 260C386 253.373 391.373 248 398 248H446C452.627 248 458 253.373 458 260V280C458 286.627 452.627 292 446 292H398C391.373 292 386 286.627 386 280V260Z" fill="#FAFAFA" fill-opacity="0.02"/>
<path d="M386.5 260C386.5 253.649 391.649 248.5 398 248.5H446C452.351 248.5 457.5 253.649 457.5 260V280C457.5 286.351 452.351 291.5 446 291.5H398C391.649 291.5 386.5 286.351 386.5 280V260Z" stroke="white" stroke-opacity="0.2"/>
<path d="M406.415 275H403.119V264.818H406.519C407.517 264.818 408.374 265.022 409.089 265.43C409.805 265.834 410.354 266.416 410.735 267.175C411.12 267.93 411.312 268.837 411.312 269.894C411.312 270.955 411.118 271.866 410.73 272.629C410.346 273.391 409.789 273.978 409.06 274.388C408.33 274.796 407.449 275 406.415 275ZM404.655 273.658H406.33C407.106 273.658 407.75 273.512 408.264 273.22C408.778 272.925 409.162 272.499 409.418 271.942C409.673 271.382 409.8 270.7 409.8 269.894C409.8 269.095 409.673 268.418 409.418 267.861C409.166 267.304 408.79 266.881 408.289 266.593C407.789 266.305 407.167 266.161 406.425 266.161H404.655V273.658ZM416.319 275.154C415.604 275.154 414.979 274.99 414.445 274.662C413.912 274.334 413.497 273.875 413.202 273.285C412.907 272.695 412.76 272.005 412.76 271.217C412.76 270.424 412.907 269.732 413.202 269.138C413.497 268.545 413.912 268.085 414.445 267.756C414.979 267.428 415.604 267.264 416.319 267.264C417.035 267.264 417.66 267.428 418.194 267.756C418.727 268.085 419.142 268.545 419.437 269.138C419.732 269.732 419.879 270.424 419.879 271.217C419.879 272.005 419.732 272.695 419.437 273.285C419.142 273.875 418.727 274.334 418.194 274.662C417.66 274.99 417.035 275.154 416.319 275.154ZM416.324 273.906C416.788 273.906 417.173 273.784 417.478 273.538C417.783 273.293 418.008 272.967 418.154 272.559C418.303 272.151 418.378 271.702 418.378 271.212C418.378 270.724 418.303 270.277 418.154 269.869C418.008 269.458 417.783 269.129 417.478 268.88C417.173 268.631 416.788 268.507 416.324 268.507C415.857 268.507 415.469 268.631 415.161 268.88C414.856 269.129 414.629 269.458 414.48 269.869C414.334 270.277 414.261 270.724 414.261 271.212C414.261 271.702 414.334 272.151 414.48 272.559C414.629 272.967 414.856 273.293 415.161 273.538C415.469 273.784 415.857 273.906 416.324 273.906ZM423.025 270.466V275H421.538V267.364H422.965V268.607H423.06C423.235 268.202 423.51 267.877 423.885 267.632C424.263 267.387 424.738 267.264 425.312 267.264C425.832 267.264 426.288 267.374 426.679 267.592C427.07 267.808 427.373 268.129 427.589 268.557C427.804 268.984 427.912 269.513 427.912 270.143V275H426.425V270.322C426.425 269.768 426.281 269.336 425.993 269.024C425.705 268.709 425.308 268.552 424.805 268.552C424.46 268.552 424.153 268.626 423.885 268.776C423.62 268.925 423.409 269.143 423.254 269.432C423.101 269.717 423.025 270.062 423.025 270.466ZM433.197 275.154C432.444 275.154 431.796 274.993 431.253 274.672C430.713 274.347 430.295 273.891 430 273.305C429.708 272.715 429.562 272.024 429.562 271.232C429.562 270.449 429.708 269.76 430 269.163C430.295 268.567 430.706 268.101 431.233 267.766C431.763 267.432 432.383 267.264 433.092 267.264C433.523 267.264 433.941 267.335 434.345 267.478C434.75 267.621 435.112 267.844 435.434 268.149C435.755 268.454 436.009 268.85 436.195 269.337C436.38 269.821 436.473 270.41 436.473 271.102V271.629H430.403V270.516H435.016C435.016 270.125 434.937 269.778 434.778 269.477C434.619 269.172 434.395 268.931 434.107 268.756C433.821 268.58 433.487 268.492 433.102 268.492C432.685 268.492 432.32 268.595 432.009 268.8C431.7 269.003 431.462 269.268 431.293 269.596C431.127 269.921 431.044 270.274 431.044 270.655V271.525C431.044 272.035 431.134 272.469 431.312 272.827C431.495 273.185 431.748 273.459 432.073 273.648C432.398 273.833 432.777 273.926 433.212 273.926C433.493 273.926 433.75 273.886 433.982 273.807C434.214 273.724 434.415 273.601 434.584 273.439C434.753 273.277 434.882 273.076 434.972 272.837L436.379 273.091C436.266 273.505 436.064 273.868 435.772 274.18C435.484 274.488 435.121 274.728 434.683 274.901C434.249 275.07 433.754 275.154 433.197 275.154ZM439.997 264.818L439.867 272.072H438.49L438.361 264.818H439.997ZM439.181 275.094C438.906 275.094 438.671 274.998 438.475 274.806C438.28 274.611 438.184 274.375 438.187 274.1C438.184 273.828 438.28 273.596 438.475 273.404C438.671 273.209 438.906 273.111 439.181 273.111C439.45 273.111 439.682 273.209 439.877 273.404C440.073 273.596 440.172 273.828 440.176 274.1C440.172 274.282 440.124 274.45 440.031 274.602C439.942 274.751 439.823 274.871 439.673 274.96C439.524 275.05 439.36 275.094 439.181 275.094Z" fill="#A1A1AA"/>
</g>
<g filter="url(#filter3_dd_2068_1003)">
<rect x="251.2" y="305.8" width="61.2" height="25.2" rx="6.6" fill="#FAFAFA"/>
<rect x="251.2" y="305.8" width="61.2" height="25.2" rx="6.6" stroke="#D4D4D8" stroke-width="1.2"/>
<path d="M259.047 323.9V312.555H266.16V314.028H260.758V317.485H265.788V318.953H260.758V322.427H266.226V323.9H259.047ZM268.313 323.9V315.391H269.914V316.743H270.003C270.158 316.285 270.431 315.925 270.823 315.663C271.218 315.397 271.665 315.264 272.163 315.264C272.267 315.264 272.389 315.267 272.529 315.275C272.673 315.282 272.786 315.291 272.867 315.302V316.887C272.8 316.868 272.682 316.848 272.512 316.826C272.342 316.8 272.173 316.787 272.003 316.787C271.611 316.787 271.262 316.87 270.956 317.036C270.653 317.199 270.413 317.426 270.236 317.718C270.058 318.006 269.97 318.335 269.97 318.704V323.9H268.313ZM274.3 323.9V315.391H275.957V323.9H274.3ZM275.137 314.078C274.849 314.078 274.601 313.982 274.394 313.79C274.191 313.594 274.09 313.362 274.09 313.092C274.09 312.819 274.191 312.586 274.394 312.394C274.601 312.198 274.849 312.1 275.137 312.1C275.425 312.1 275.67 312.198 275.874 312.394C276.08 312.586 276.184 312.819 276.184 313.092C276.184 313.362 276.08 313.594 275.874 313.79C275.67 313.982 275.425 314.078 275.137 314.078ZM279.709 321.014L279.697 318.992H279.986L283.376 315.391H285.359L281.492 319.491H281.232L279.709 321.014ZM278.185 323.9V312.555H279.841V323.9H278.185ZM283.559 323.9L280.512 319.856L281.653 318.698L285.592 323.9H283.559ZM294.803 323.9H291.13V312.555H294.919C296.031 312.555 296.986 312.782 297.783 313.236C298.581 313.687 299.192 314.335 299.617 315.181C300.045 316.023 300.26 317.033 300.26 318.211C300.26 319.393 300.044 320.408 299.612 321.258C299.183 322.107 298.563 322.761 297.75 323.219C296.938 323.673 295.955 323.9 294.803 323.9ZM292.842 322.404H294.709C295.573 322.404 296.291 322.242 296.864 321.917C297.436 321.588 297.865 321.114 298.149 320.493C298.433 319.869 298.576 319.108 298.576 318.211C298.576 317.321 298.433 316.566 298.149 315.945C297.868 315.325 297.449 314.854 296.892 314.532C296.334 314.211 295.641 314.05 294.814 314.05H292.842V322.404ZM302.631 324.005C302.328 324.005 302.068 323.898 301.85 323.684C301.632 323.466 301.523 323.204 301.523 322.898C301.523 322.595 301.632 322.336 301.85 322.122C302.068 321.904 302.328 321.795 302.631 321.795C302.934 321.795 303.194 321.904 303.412 322.122C303.63 322.336 303.739 322.595 303.739 322.898C303.739 323.101 303.687 323.287 303.584 323.457C303.484 323.623 303.351 323.756 303.185 323.856C303.019 323.956 302.834 324.005 302.631 324.005Z" fill="#18181B"/>
<path d="M246.649 286.497L259.703 299.551C260.459 300.307 259.924 301.6 258.854 301.6H252.698C252.062 301.6 251.452 301.853 251.001 302.303L246.649 306.656C245.893 307.412 244.6 306.876 244.6 305.807V287.346C244.6 286.276 245.893 285.741 246.649 286.497Z" fill="#FAFAFA" stroke="#D4D4D8" stroke-width="1.2"/>
</g>
<g filter="url(#filter4_dd_2068_1003)">
<g filter="url(#filter5_dd_2068_1003)">
<rect x="64" y="139.2" width="74.4" height="26.4" rx="7.2" fill="#FB923C"/>
<rect x="64.6" y="139.8" width="73.2" height="25.2" rx="6.6" stroke="#FDBA74" stroke-width="1.2"/>
<path d="M79.9391 149.535C79.88 149.011 79.6362 148.604 79.2078 148.316C78.7794 148.024 78.2402 147.879 77.5902 147.879C77.1249 147.879 76.7223 147.952 76.3825 148.1C76.0428 148.244 75.7787 148.444 75.5904 148.698C75.4057 148.95 75.3134 149.236 75.3134 149.557C75.3134 149.827 75.3761 150.059 75.5017 150.255C75.631 150.451 75.799 150.615 76.0058 150.748C76.2163 150.877 76.4416 150.986 76.6817 151.075C76.9217 151.16 77.1526 151.23 77.3742 151.286L78.4821 151.574C78.844 151.662 79.2152 151.782 79.5956 151.934C79.976 152.085 80.3287 152.285 80.6537 152.532C80.9787 152.779 81.2409 153.086 81.4404 153.452C81.6435 153.817 81.745 154.255 81.745 154.765C81.745 155.407 81.5788 155.978 81.2465 156.476C80.9178 156.975 80.4395 157.368 79.8117 157.656C79.1875 157.944 78.4323 158.088 77.5459 158.088C76.6965 158.088 75.9615 157.954 75.3411 157.684C74.7206 157.414 74.235 157.032 73.8841 156.537C73.5333 156.039 73.3394 155.448 73.3024 154.765H75.0198C75.053 155.174 75.1859 155.516 75.4186 155.789C75.655 156.059 75.956 156.26 76.3216 156.393C76.6909 156.522 77.0953 156.587 77.5348 156.587C78.0186 156.587 78.4489 156.511 78.8256 156.36C79.206 156.205 79.5051 155.991 79.723 155.717C79.9409 155.44 80.0499 155.117 80.0499 154.748C80.0499 154.412 79.9538 154.137 79.7618 153.922C79.5735 153.708 79.3168 153.531 78.9918 153.391C78.6705 153.25 78.3067 153.127 77.9004 153.019L76.5598 152.654C75.6513 152.406 74.9311 152.043 74.3993 151.563C73.8712 151.082 73.6071 150.447 73.6071 149.657C73.6071 149.003 73.7844 148.433 74.1389 147.945C74.4935 147.458 74.9736 147.079 75.5793 146.809C76.185 146.536 76.8682 146.399 77.629 146.399C78.3972 146.399 79.0749 146.534 79.6621 146.804C80.253 147.073 80.7183 147.445 81.0581 147.917C81.3979 148.386 81.5752 148.926 81.5899 149.535H79.9391ZM87.2419 158.072C86.4442 158.072 85.748 157.889 85.1534 157.523C84.5588 157.158 84.0971 156.646 83.7684 155.989C83.4397 155.331 83.2754 154.563 83.2754 153.684C83.2754 152.802 83.4397 152.03 83.7684 151.369C84.0971 150.708 84.5588 150.194 85.1534 149.829C85.748 149.463 86.4442 149.28 87.2419 149.28C88.0396 149.28 88.7358 149.463 89.3304 149.829C89.925 150.194 90.3866 150.708 90.7153 151.369C91.044 152.03 91.2084 152.802 91.2084 153.684C91.2084 154.563 91.044 155.331 90.7153 155.989C90.3866 156.646 89.925 157.158 89.3304 157.523C88.7358 157.889 88.0396 158.072 87.2419 158.072ZM87.2474 156.681C87.7645 156.681 88.1929 156.545 88.5326 156.271C88.8724 155.998 89.1236 155.634 89.2861 155.18C89.4523 154.726 89.5353 154.225 89.5353 153.679C89.5353 153.136 89.4523 152.637 89.2861 152.183C89.1236 151.725 88.8724 151.358 88.5326 151.081C88.1929 150.804 87.7645 150.665 87.2474 150.665C86.7267 150.665 86.2946 150.804 85.9511 151.081C85.6113 151.358 85.3584 151.725 85.1922 152.183C85.0297 152.637 84.9484 153.136 84.9484 153.679C84.9484 154.225 85.0297 154.726 85.1922 155.18C85.3584 155.634 85.6113 155.998 85.9511 156.271C86.2946 156.545 86.7267 156.681 87.2474 156.681ZM97.1068 149.391V150.72H92.2983V149.391H97.1068ZM93.6168 157.9V148.405C93.6168 147.873 93.7331 147.432 93.9658 147.081C94.1985 146.726 94.5068 146.462 94.8909 146.289C95.275 146.111 95.6923 146.023 96.1429 146.023C96.4753 146.023 96.7597 146.05 96.996 146.106C97.2324 146.158 97.4078 146.206 97.5223 146.25L97.1345 147.591C97.057 147.568 96.9573 147.542 96.8354 147.513C96.7135 147.48 96.5658 147.463 96.3922 147.463C95.9896 147.463 95.7016 147.563 95.528 147.762C95.3581 147.962 95.2732 148.25 95.2732 148.626V157.9H93.6168ZM98.8159 157.9V149.391H100.472V157.9H98.8159ZM99.6524 148.078C99.3643 148.078 99.1168 147.982 98.91 147.79C98.7069 147.594 98.6053 147.362 98.6053 147.092C98.6053 146.819 98.7069 146.586 98.91 146.394C99.1168 146.198 99.3643 146.1 99.6524 146.1C99.9404 146.1 100.186 146.198 100.389 146.394C100.596 146.586 100.699 146.819 100.699 147.092C100.699 147.362 100.596 147.594 100.389 147.79C100.186 147.982 99.9404 148.078 99.6524 148.078ZM105.177 158.088C104.638 158.088 104.15 157.989 103.714 157.789C103.279 157.586 102.933 157.292 102.678 156.908C102.427 156.524 102.302 156.053 102.302 155.496C102.302 155.016 102.394 154.62 102.579 154.31C102.763 154 103.013 153.754 103.327 153.573C103.641 153.392 103.991 153.256 104.379 153.164C104.767 153.071 105.162 153.001 105.565 152.953C106.074 152.894 106.488 152.846 106.806 152.809C107.123 152.768 107.354 152.704 107.498 152.615C107.642 152.526 107.714 152.382 107.714 152.183V152.144C107.714 151.66 107.577 151.286 107.304 151.02C107.035 150.754 106.632 150.621 106.096 150.621C105.539 150.621 105.099 150.744 104.778 150.992C104.46 151.236 104.241 151.507 104.119 151.806L102.562 151.452C102.747 150.935 103.016 150.517 103.371 150.2C103.729 149.878 104.141 149.646 104.606 149.502C105.072 149.354 105.561 149.28 106.074 149.28C106.414 149.28 106.774 149.321 107.155 149.402C107.539 149.48 107.897 149.624 108.229 149.834C108.565 150.045 108.841 150.346 109.055 150.737C109.269 151.125 109.376 151.629 109.376 152.249V157.9H107.758V156.737H107.692C107.585 156.951 107.424 157.161 107.21 157.368C106.996 157.575 106.721 157.747 106.385 157.883C106.048 158.02 105.646 158.088 105.177 158.088ZM105.537 156.759C105.995 156.759 106.386 156.668 106.711 156.487C107.04 156.306 107.289 156.07 107.459 155.778C107.633 155.483 107.72 155.167 107.72 154.831V153.734C107.661 153.793 107.546 153.849 107.376 153.9C107.21 153.948 107.02 153.991 106.806 154.028C106.591 154.061 106.383 154.092 106.18 154.122C105.976 154.148 105.807 154.17 105.67 154.188C105.349 154.229 105.055 154.297 104.789 154.393C104.527 154.489 104.316 154.628 104.158 154.809C104.002 154.986 103.925 155.222 103.925 155.518C103.925 155.928 104.076 156.238 104.379 156.449C104.682 156.655 105.068 156.759 105.537 156.759ZM123.522 150.139C123.415 149.803 123.271 149.502 123.09 149.236C122.912 148.966 122.7 148.737 122.453 148.549C122.205 148.357 121.923 148.211 121.605 148.111C121.291 148.012 120.946 147.962 120.569 147.962C119.93 147.962 119.354 148.126 118.841 148.455C118.327 148.783 117.921 149.265 117.622 149.901C117.327 150.532 117.179 151.306 117.179 152.222C117.179 153.141 117.328 153.919 117.628 154.554C117.927 155.189 118.337 155.671 118.857 156C119.378 156.329 119.971 156.493 120.636 156.493C121.252 156.493 121.79 156.367 122.248 156.116C122.709 155.865 123.066 155.511 123.317 155.053C123.572 154.591 123.699 154.048 123.699 153.424L124.142 153.507H120.896V152.094H125.356V153.385C125.356 154.338 125.152 155.165 124.746 155.867C124.344 156.565 123.786 157.104 123.073 157.485C122.364 157.865 121.552 158.055 120.636 158.055C119.609 158.055 118.708 157.819 117.932 157.346C117.16 156.873 116.558 156.203 116.126 155.335C115.694 154.464 115.478 153.429 115.478 152.233C115.478 151.328 115.604 150.516 115.855 149.795C116.106 149.075 116.459 148.464 116.913 147.962C117.371 147.456 117.908 147.07 118.525 146.804C119.145 146.534 119.823 146.399 120.558 146.399C121.171 146.399 121.742 146.49 122.27 146.671C122.802 146.852 123.274 147.109 123.688 147.441C124.105 147.773 124.451 148.168 124.724 148.626C124.997 149.081 125.182 149.585 125.278 150.139H123.522ZM128.487 158.005C128.184 158.005 127.924 157.898 127.706 157.684C127.488 157.466 127.379 157.204 127.379 156.897C127.379 156.594 127.488 156.336 127.706 156.122C127.924 155.904 128.184 155.795 128.487 155.795C128.79 155.795 129.05 155.904 129.268 156.122C129.486 156.336 129.595 156.594 129.595 156.897C129.595 157.1 129.543 157.287 129.44 157.457C129.34 157.623 129.207 157.756 129.041 157.856C128.875 157.955 128.69 158.005 128.487 158.005Z" fill="#FAFAFA"/>
</g>
<path d="M143.551 120.497L130.497 133.551C129.741 134.307 130.277 135.6 131.346 135.6H137.502C138.138 135.6 138.748 135.853 139.199 136.303L143.551 140.656C144.307 141.412 145.6 140.876 145.6 139.807V121.346C145.6 120.276 144.307 119.741 143.551 120.497Z" fill="#FB923C" stroke="#FDBA74" stroke-width="1.2"/>
</g>
<defs>
<filter id="filter0_i_2068_1003" x="64" y="37" width="293" height="64" filterUnits="userSpaceOnUse" color-interpolation-filters="sRGB">
<feFlood flood-opacity="0" result="BackgroundImageFix"/>
<feBlend mode="normal" in="SourceGraphic" in2="BackgroundImageFix" result="shape"/>
<feColorMatrix in="SourceAlpha" type="matrix" values="0 0 0 0 0 0 0 0 0 0 0 0 0 0 0 0 0 0 127 0" result="hardAlpha"/>
<feOffset/>
<feGaussianBlur stdDeviation="32"/>
<feComposite in2="hardAlpha" operator="arithmetic" k2="-1" k3="1"/>
<feColorMatrix type="matrix" values="0 0 0 0 0.980392 0 0 0 0 0.980392 0 0 0 0 0.980392 0 0 0 0.05 0"/>
<feBlend mode="normal" in2="shape" result="effect1_innerShadow_2068_1003"/>
</filter>
<filter id="filter1_i_2068_1003" x="173" y="168" width="285" height="64" filterUnits="userSpaceOnUse" color-interpolation-filters="sRGB">
<feFlood flood-opacity="0" result="BackgroundImageFix"/>
<feBlend mode="normal" in="SourceGraphic" in2="BackgroundImageFix" result="shape"/>
<feColorMatrix in="SourceAlpha" type="matrix" values="0 0 0 0 0 0 0 0 0 0 0 0 0 0 0 0 0 0 127 0" result="hardAlpha"/>
<feOffset/>
<feGaussianBlur stdDeviation="32"/>
<feComposite in2="hardAlpha" operator="arithmetic" k2="-1" k3="1"/>
<feColorMatrix type="matrix" values="0 0 0 0 0.980392 0 0 0 0 0.980392 0 0 0 0 0.980392 0 0 0 0.05 0"/>
<feBlend mode="normal" in2="shape" result="effect1_innerShadow_2068_1003"/>
</filter>
<filter id="filter2_i_2068_1003" x="386" y="248" width="72" height="44" filterUnits="userSpaceOnUse" color-interpolation-filters="sRGB">
<feFlood flood-opacity="0" result="BackgroundImageFix"/>
<feBlend mode="normal" in="SourceGraphic" in2="BackgroundImageFix" result="shape"/>
<feColorMatrix in="SourceAlpha" type="matrix" values="0 0 0 0 0 0 0 0 0 0 0 0 0 0 0 0 0 0 127 0" result="hardAlpha"/>
<feOffset/>
<feGaussianBlur stdDeviation="32"/>
<feComposite in2="hardAlpha" operator="arithmetic" k2="-1" k3="1"/>
<feColorMatrix type="matrix" values="0 0 0 0 0.980392 0 0 0 0 0.980392 0 0 0 0 0.980392 0 0 0 0.05 0"/>
<feBlend mode="normal" in2="shape" result="effect1_innerShadow_2068_1003"/>
</filter>
<filter id="filter3_dd_2068_1003" x="224" y="285.542" width="109" height="86.0582" filterUnits="userSpaceOnUse" color-interpolation-filters="sRGB">
<feFlood flood-opacity="0" result="BackgroundImageFix"/>
<feColorMatrix in="SourceAlpha" type="matrix" values="0 0 0 0 0 0 0 0 0 0 0 0 0 0 0 0 0 0 127 0" result="hardAlpha"/>
<feMorphology radius="5" operator="erode" in="SourceAlpha" result="effect1_dropShadow_2068_1003"/>
<feOffset dy="20"/>
<feGaussianBlur stdDeviation="12.5"/>
<feComposite in2="hardAlpha" operator="out"/>
<feColorMatrix type="matrix" values="0 0 0 0 0 0 0 0 0 0 0 0 0 0 0 0 0 0 0.1 0"/>
<feBlend mode="normal" in2="BackgroundImageFix" result="effect1_dropShadow_2068_1003"/>
<feColorMatrix in="SourceAlpha" type="matrix" values="0 0 0 0 0 0 0 0 0 0 0 0 0 0 0 0 0 0 127 0" result="hardAlpha"/>
<feMorphology radius="6" operator="erode" in="SourceAlpha" result="effect2_dropShadow_2068_1003"/>
<feOffset dy="8"/>
<feGaussianBlur stdDeviation="5"/>
<feComposite in2="hardAlpha" operator="out"/>
<feColorMatrix type="matrix" values="0 0 0 0 0 0 0 0 0 0 0 0 0 0 0 0 0 0 0.1 0"/>
<feBlend mode="normal" in2="effect1_dropShadow_2068_1003" result="effect2_dropShadow_2068_1003"/>
<feBlend mode="normal" in="SourceGraphic" in2="effect2_dropShadow_2068_1003" result="shape"/>
</filter>
<filter id="filter4_dd_2068_1003" x="44" y="119.542" width="122.2" height="86.058" filterUnits="userSpaceOnUse" color-interpolation-filters="sRGB">
<feFlood flood-opacity="0" result="BackgroundImageFix"/>
<feColorMatrix in="SourceAlpha" type="matrix" values="0 0 0 0 0 0 0 0 0 0 0 0 0 0 0 0 0 0 127 0" result="hardAlpha"/>
<feMorphology radius="5" operator="erode" in="SourceAlpha" result="effect1_dropShadow_2068_1003"/>
<feOffset dy="20"/>
<feGaussianBlur stdDeviation="12.5"/>
<feComposite in2="hardAlpha" operator="out"/>
<feColorMatrix type="matrix" values="0 0 0 0 0 0 0 0 0 0 0 0 0 0 0 0 0 0 0.1 0"/>
<feBlend mode="normal" in2="BackgroundImageFix" result="effect1_dropShadow_2068_1003"/>
<feColorMatrix in="SourceAlpha" type="matrix" values="0 0 0 0 0 0 0 0 0 0 0 0 0 0 0 0 0 0 127 0" result="hardAlpha"/>
<feMorphology radius="6" operator="erode" in="SourceAlpha" result="effect2_dropShadow_2068_1003"/>
<feOffset dy="8"/>
<feGaussianBlur stdDeviation="5"/>
<feComposite in2="hardAlpha" operator="out"/>
<feColorMatrix type="matrix" values="0 0 0 0 0 0 0 0 0 0 0 0 0 0 0 0 0 0 0.1 0"/>
<feBlend mode="normal" in2="effect1_dropShadow_2068_1003" result="effect2_dropShadow_2068_1003"/>
<feBlend mode="normal" in="SourceGraphic" in2="effect2_dropShadow_2068_1003" result="shape"/>
</filter>
<filter id="filter5_dd_2068_1003" x="0" y="75.2" width="202.4" height="154.4" filterUnits="userSpaceOnUse" color-interpolation-filters="sRGB">
<feFlood flood-opacity="0" result="BackgroundImageFix"/>
<feColorMatrix in="SourceAlpha" type="matrix" values="0 0 0 0 0 0 0 0 0 0 0 0 0 0 0 0 0 0 127 0" result="hardAlpha"/>
<feOffset/>
<feGaussianBlur stdDeviation="32"/>
<feColorMatrix type="matrix" values="0 0 0 0 0.984314 0 0 0 0 0.572549 0 0 0 0 0.235294 0 0 0 1 0"/>
<feBlend mode="normal" in2="BackgroundImageFix" result="effect1_dropShadow_2068_1003"/>
<feColorMatrix in="SourceAlpha" type="matrix" values="0 0 0 0 0 0 0 0 0 0 0 0 0 0 0 0 0 0 127 0" result="hardAlpha"/>
<feOffset/>
<feGaussianBlur stdDeviation="4"/>
<feColorMatrix type="matrix" values="0 0 0 0 0.992157 0 0 0 0 0.729412 0 0 0 0 0.454902 0 0 0 0.5 0"/>
<feBlend mode="normal" in2="effect1_dropShadow_2068_1003" result="effect2_dropShadow_2068_1003"/>
<feBlend mode="normal" in="SourceGraphic" in2="effect2_dropShadow_2068_1003" result="shape"/>
</filter>
</defs>
</svg>
