<svg width="512" height="392" viewBox="0 0 512 392" fill="none" xmlns="http://www.w3.org/2000/svg">
<path d="M84.8633 305.514L84.8705 305.652L85.2168 306.751L83.7305 317.163L82.2079 290.889L83.3697 279.99L84.8633 305.514ZM204.822 128.079L203.942 128.822L187.259 132.758L187.736 132.569L208.82 124.398L221.497 121.633L204.822 128.079ZM290.796 120.6L289.295 120.716L284.395 119.261L303.336 122.84L304.267 123.161L290.796 120.6ZM224.015 457.803L224.795 458.13L256.132 463.289L241.78 464.766L211.785 459.84L224.015 457.803ZM206.994 459.055L174.365 445.201L185.405 441.337L185.499 441.403L222.118 456.995L208.387 459.28L206.994 459.055ZM114.714 393.257L120.299 383.769L149.154 415.267L140.56 421.903L139.709 421.299L116.742 396.24L114.714 393.257ZM98.479 347.104L119.534 382.917L114.079 392.173L95.2393 360.092L95.0733 359.561L98.479 347.104ZM97.4472 345.293L97.4833 345.409L97.7287 345.824L94.4672 357.64L84.1995 325.203L84.0552 322.693L85.9889 309.167L97.4472 345.293ZM147.906 158.493L145.525 160.247L148.202 157.999L147.906 158.493ZM235.185 118.664L236.809 118.548L260.418 123.714L238.432 132.256L238.086 132.547L208.798 128.916L235.185 118.664ZM387.066 182.832L371.379 165.849L374.143 160.072L394.469 182.024L387.066 182.832ZM420.77 236.173L406.151 223.767L406.122 223.44L399.599 204.275L411.577 209.688L411.844 210.132L417.523 226.7L420.77 236.173ZM427.632 257.223L429.912 282.296L426.246 268.493L426.441 267.482L426.47 267.329L424.745 248.302L427.632 257.223ZM425.618 319.659L421.13 294.76L421.448 294.178L425.777 271.011L430.503 288.837L430.778 291.857L425.618 319.659ZM333.259 444.561L313.07 453.365L324.702 446.409L325.777 446.299L325.943 446.278L342.834 438.922L333.259 444.561ZM267.879 462.067L286.445 450.309L287 450.403L322.082 446.685L305.082 456.85L301.301 458.494L267.879 462.067ZM97.1658 246.265L99.4387 284.224L99.446 284.363L99.5469 284.661L86.9269 303.069L84.7984 266.747L85.0942 265.459L97.1658 246.265ZM103.934 213.028L97.0432 243.471L97.0071 243.624L97.0576 244.424L85.8302 262.229L92.7716 231.691L103.934 213.028ZM164.913 175.265L164.826 175.418L164.776 175.629L133.734 186.586L150.308 158.77L151.023 158.173L179.856 150.017L164.913 175.265ZM218.135 150.068L205.746 171.219L167.575 175.098L182.649 149.617L182.836 149.464L218.135 150.068ZM291.293 140.631L290.889 140.791L265.707 124.681L290.673 122.833L291.257 122.95L309.051 139.277L291.293 140.631ZM350.808 151.428L331.982 143.104L331.426 142.995L321.88 129.367L347.597 140.718L347.9 140.943L350.808 151.428ZM370.491 165.173L352.474 152.163L352.113 152.003L349.328 141.969L373.313 159.25L370.491 165.173ZM410.134 351.106L388.776 370.584L389.894 334.328L389.974 334.299L407.746 318.204L410.365 350.677L410.134 351.106ZM377.173 404.855L346.507 418.148L359.004 386.323L387.058 374.317L377.628 404.44L377.173 404.855ZM112.622 325.698L112.65 325.778L99.114 343.255L87.0496 305.245L87.0279 304.859L99.9582 285.971L112.622 325.698ZM122.579 223.454L122.55 223.614L122.565 223.876L99.6769 241.79L107.484 207.294L108.04 206.377L130.127 189.759L122.579 223.454ZM157.683 207.862L157.654 207.985L125.061 222.472L132.702 188.325L132.847 188.078L164.494 176.902L157.683 207.862ZM424.247 267.22L419.723 291.435L404.21 263.335L404.231 263.298L407.601 245.792L424.197 266.704L424.247 267.22ZM395.371 279.444L395.392 279.422L403.582 264.477L419.399 293.138L419.348 293.421L407.998 314.318L395.371 279.444ZM407.277 315.65L389.606 331.643L381.871 291.544L394.483 280.237L407.298 315.613L407.277 315.65ZM387.564 371.698L359.618 383.703L365.693 344.609L388.776 334.808L387.643 371.618L387.564 371.698ZM344.97 418.81L308.914 422.543L325.055 389.75L357.763 386.468L345.107 418.752L344.97 418.81ZM325.38 444.109L288.761 447.98L307.521 424.879L307.666 424.908L343.549 421.19L326.022 443.826L325.38 444.109ZM167.597 399.572L203.891 425.526L186.559 439.445L151.687 414.554L167.597 399.572ZM136.318 365.622L166.767 398.838L150.842 413.834L121.605 381.95L136.318 365.622ZM113.242 326.804L135.603 364.771L120.963 381.011L99.5253 344.529L113.242 326.804ZM125.018 263.182L101.546 282.602L99.2222 243.813L99.2944 243.5L122.644 225.193L125.018 263.182ZM250.259 176.327L246.506 194.212L202.318 197.515L207.744 172.325L250.259 176.327ZM250.569 175.25L208.271 171.27L220.545 150.33L259.191 160.349L250.569 175.25ZM351.161 153.982L348.434 174.937L338.671 170.615L338.541 170.594L332.502 145.753L351.161 153.982ZM367.382 191.258L359.567 182.781L370.189 167.814L384.749 183.545L367.382 191.258ZM373.803 201.764L368.031 192.182L385.471 184.411L396.352 202.375L373.803 201.764ZM377.577 212.839L374.229 202.885L396.994 203.46L403.474 222.414L377.577 212.839ZM405.725 243.886L402.456 261.123L376.56 233.677L378.299 224.917L405.725 243.849V243.886ZM365.816 342.149L364.625 298.762L380.853 292.024L388.646 332.458L365.816 342.149ZM358.449 384.169L325.928 387.429L337.798 347.33L364.56 344.754L358.449 384.169ZM307.644 422.652L268.954 416.155L288.948 383.587L323.915 389.582L307.644 422.652ZM125.371 264.317L137.883 303.281L114.397 324.003L101.632 283.962L125.371 264.317ZM160.28 244.599L171.659 279.728L139.745 301.862L127.262 262.993L160.28 244.599ZM202.261 228.104L211.612 256.779L173.586 278.527L162.286 243.653L202.261 228.104ZM307.99 172.98L275.852 149.049L291.618 142.828L316.021 169.815L307.99 172.98ZM394.144 277.116L371.935 242.176L376.055 234.754L402.197 262.432L394.144 277.116ZM338.289 345.053L344.783 300.741L363.543 299.017L364.734 342.506L338.289 345.053ZM324.774 387.472L290.016 381.55L308.135 342.229L336.694 347.214L324.774 387.472ZM267.821 415.907L229.398 399.478L253.166 368.292L287.88 383.23L267.821 415.907ZM227.941 401.239L266.45 417.734L246.146 441.359L206.59 424.5L227.941 401.239ZM138.41 304.285L160.302 341.327L137.205 363.148L114.801 325.102L138.41 304.285ZM172.179 280.71L191.95 314.093L161.976 339.828L140.163 302.909L172.179 280.71ZM212.11 257.761L228.302 284.996L193.667 312.667L174.026 279.546L212.11 257.761ZM248.195 216.055L254.804 236.144L213.596 255.746L204.324 227.442L248.195 216.055ZM295.551 188.522L293.74 197.399L248.75 194.226L252.423 176.727L295.551 188.522ZM300.133 180.067L295.911 187.467L252.856 175.701L261.298 161.113L300.133 180.067ZM300.775 179.15L262.114 160.291L274.676 149.551L307.096 173.693L300.775 179.15ZM339.609 204.522L338.815 173.104L347.979 177.135L339.609 204.522ZM343.375 209.07L375.449 213.45L376.235 222.552L343.375 209.07ZM364.871 248.528L371.148 242.969L393.502 278.149L381.156 289.216L364.871 248.528ZM337.177 345.053L308.957 340.149L323.684 297.089L343.686 300.661L337.177 345.053ZM288.934 381.273L254.458 366.466L278.753 329.649L307.074 341.902L288.934 381.273ZM228.403 398.961L193.09 373.713L220.285 344.863L252.207 367.74L228.403 398.961ZM191.553 375.307L226.974 400.664L205.558 423.998L169.184 398.015L191.553 375.307ZM160.995 342.186L190.723 374.579L168.347 397.295L137.847 364.058L160.995 342.186ZM192.635 314.959L219.448 344.143L192.253 372.986L162.625 340.723L192.635 314.959ZM228.987 285.869L250.893 309.691L220.949 342.513L194.323 313.562L228.987 285.869ZM255.288 237.134L266.674 256.211L230.062 283.642L214.051 256.757L255.288 237.134ZM335.02 204.202L302.745 180.373L308.755 175.178L335.02 204.202ZM336.016 203.649L309.772 174.654L317.378 171.619L336.016 203.649ZM337.235 203.554L318.561 171.459L327.263 170.768L337.235 203.554ZM340.525 205.271L348.939 177.746L357.395 183.836L340.525 205.271ZM341.333 206.043L358.218 184.578L365.361 192.298L341.333 206.043ZM342.105 206.872L366.061 193.179L371.386 201.983L342.105 206.872ZM371.949 203.016L375.102 212.293L342.834 207.876L371.949 203.016ZM343.541 210.336L376.286 223.775L374.669 232.127L343.541 210.336ZM355.851 252.333L363.904 249.059L380.247 289.878L364.365 296.528L355.851 252.333ZM307.904 339.85L279.915 327.765L302.788 288.153L322.623 296.79L307.904 339.85ZM267.352 257.085L282.721 273.783L252.373 308.039L230.719 284.523L267.352 257.085ZM294.678 209.368L297.99 219.373L256.839 235.271L250.345 215.64L294.678 209.368ZM343.253 211.485L374.366 233.255L370.455 240.306L343.253 211.485ZM345.461 253.439L354.783 252.624L363.305 296.812L344.948 298.493L345.461 253.439ZM334.414 251.569L344.371 253.396L343.859 298.442L324.283 294.971L334.414 251.569ZM298.466 220.377L304.159 229.908L268.463 254.916L257.315 236.275L298.466 220.377ZM300.075 218.667L296.914 209.208L334.984 208.553L300.075 218.667ZM362.901 247.08L355.252 250.23L341.499 212.751L362.901 247.08ZM342.531 212.322L369.799 241.208L363.832 246.498L342.531 212.322ZM304.83 230.781L312.522 239.142L284.179 272.11L269.134 255.797L304.83 230.781ZM305.992 228.671L300.587 219.671L335.669 209.513L305.992 228.671ZM345.338 251.22L340.323 212.751L354.163 250.449L345.338 251.22ZM313.958 237.439L306.67 229.552L336.42 210.343L313.958 237.439ZM339.169 212.388L344.22 251.111L334.796 249.416L339.169 212.388ZM324.37 244.955L338.13 211.798L333.728 249.044L324.37 244.955ZM323.417 244.38L314.78 238.174L337.228 211.1L323.417 244.38ZM302.874 285.665L285.009 272.837L313.359 239.855L322.486 246.432L302.874 285.665ZM323.237 294.644L303.827 286.218L323.461 246.949L333.353 251.293L323.237 294.644ZM278.955 327.226L253.202 308.767L283.558 274.504L301.814 287.63L278.955 327.226ZM334.464 207.454L296.633 208.102L295.904 198.854L334.464 207.454ZM298.004 188.245L302.023 181.217L334.414 205.126L298.004 188.245ZM334.24 206.268L295.919 197.719L297.643 189.3L334.24 206.268ZM253.484 365.935L221.786 343.248L251.73 310.411L277.786 329.111L253.484 365.935ZM338.49 203.896L328.468 170.95L337.704 172.667L338.49 203.896ZM293.667 198.505L294.439 208.277L250.107 214.556L248.678 195.325L293.667 198.505ZM352.178 154.681L369.373 167.065L358.709 182.075L349.48 175.41L352.178 154.681ZM246.47 195.318L247.935 214.985L204.129 226.35L202.188 198.628L246.47 195.318ZM287.058 448.162L247.387 441.585L267.547 418.141L306.273 424.668L287.246 448.14L287.058 448.162ZM403.943 223.775L405.602 242.445L378.537 223.731L378.544 223.702L377.714 214.068L403.921 223.724L403.943 223.775ZM331.239 145.193L337.358 170.368L327.552 168.52L327.501 168.527L312.349 141.642L331.217 145.185L331.239 145.193ZM310.934 141.373L326.289 168.622L317.248 169.335L317.125 169.386L293.011 142.719L310.869 141.365L310.934 141.373ZM200.009 198.97L201.972 227.027L162.128 242.532L159.884 208.407L200.009 198.97ZM157.726 209.157L159.985 243.507L127.139 261.807L124.765 223.818L157.726 209.157ZM225.401 455.984L187.663 439.94L204.865 426.152L244.255 442.96L225.617 456.02L225.401 455.984ZM263.867 124.82L289.634 141.278L273.63 147.543L273.529 147.63L241.174 133.558L263.47 124.849L263.867 124.82ZM239.709 134.133L272.605 148.416L259.79 159.366L221.548 149.442L239.565 134.191L239.709 134.133ZM205.486 172.354L199.995 197.835L160.078 207.236L166.89 176.283L205.486 172.354ZM227.176 456.275L245.453 443.469L245.496 443.484L284.807 450.032L265.39 462.336L264.545 462.423L227.176 456.275ZM358.543 429.659L328.064 442.938L345.071 421.03L345.36 421.001L375.413 408.027L360.556 427.818L358.543 429.659ZM379.244 402.956L388.393 373.75L388.769 373.589L409.766 354.431L403.156 380.16L402.226 381.892L379.244 402.956ZM411.324 348.894L408.777 317.272L409.023 317.047L420.293 296.31L425.048 322.715L424.832 323.872L411.324 348.894ZM421.679 238.829L424.017 264.703L407.875 244.366L407.947 244.002L406.288 225.339L421.469 238.218L421.679 238.829ZM206.619 129.767L236.931 133.522L219.015 148.693L218.871 148.816L218.777 148.969L184.135 148.372L205.955 130.022L206.619 129.767ZM130.559 172.769L132.183 171.416L146.455 160.931L130.632 187.489L130.495 188.093L109.54 203.86L125.682 176.858L130.559 172.769ZM172.576 444.444L164.473 438.965L141.498 422.572L149.977 416.024L184.301 440.551L172.85 444.561L172.576 444.444ZM384.418 405.91L368.262 420.739L364.993 423.736L377.455 407.147L378.378 406.747L395.32 391.219L384.418 405.91ZM418.554 351.572L411.332 364.982L405.328 376.129L411.245 353.078L411.887 352.496L423.028 331.854L418.554 351.572ZM395.428 183.057L410.56 208.014L399.108 202.834L399.022 202.572L387.722 183.872L395.407 183.043L395.428 183.057ZM319.355 128.254L319.932 128.509L329.875 142.704L310.992 139.132L310.53 139.168L293.307 123.335L319.355 128.254ZM273.579 117.216L286.17 120.949L263.146 122.651L262.287 122.986L240.698 118.264L268.37 116.234L273.579 117.216ZM176.263 137.022L179.77 135.661L202.059 130.408L180.953 148.161L180.672 148.634L153.101 156.434L176.263 137.022ZM171.443 446.35L206.258 461.15L241.715 467L264.48 464.664L264.618 464.65H264.625L301.871 460.67L334.19 446.569C334.197 446.569 334.197 446.569 334.197 446.561L359.647 431.602L359.755 431.551L385.976 407.482L403.921 383.339L403.979 383.281L420.56 352.496C420.647 352.336 420.676 352.154 420.683 351.979L426.924 324.65L426.932 324.621L426.968 324.461V324.454L432.971 292.119L433 291.966L429.811 256.903C429.796 256.743 429.746 256.59 429.674 256.459L423.8 238.225L413.886 209.295L397.247 181.806L375.059 157.809L348.78 138.848L320.12 126.166H320.105L320.033 126.129L303.957 120.716L303.863 120.694C303.848 120.694 303.834 120.68 303.812 120.68L268.492 114L234.861 116.467L208.271 122.244L208.17 122.28C208.148 122.288 208.127 122.287 208.105 122.295L175.577 134.912L175.303 135.013V135.021L175.137 135.086L174.603 135.53L151.189 152.614C151.182 152.614 151.182 152.614 151.182 152.622L139.139 162.706L124.022 175.367L123.993 175.389L123.849 175.629L108.48 201.124L90.8017 230.694L90.7079 230.847L82.6192 266.405L82.5832 266.558L82.5903 266.667L80 290.831L82.0131 325.473L82.0204 325.611L93.1829 360.885L112.845 394.428L115.768 398.736L137.357 422.31L163.224 440.792L171.443 446.35Z" fill="url(#paint0_linear_2068_944)"/>
<g filter="url(#filter0_d_2068_944)">
<ellipse cx="256" cy="290" rx="118.704" ry="243.335" transform="rotate(-45 256 290)" stroke="url(#paint1_linear_2068_944)" stroke-width="2" shape-rendering="crispEdges"/>
</g>
<g filter="url(#filter1_d_2068_944)">
<ellipse cx="263.941" cy="325.099" rx="86.5749" ry="216.161" transform="rotate(-105 263.941 325.099)" stroke="url(#paint2_linear_2068_944)" stroke-width="2" shape-rendering="crispEdges"/>
</g>
<defs>
<filter id="filter0_d_2068_944" x="55.5126" y="89.5126" width="400.975" height="400.975" filterUnits="userSpaceOnUse" color-interpolation-filters="sRGB">
<feFlood flood-opacity="0" result="BackgroundImageFix"/>
<feColorMatrix in="SourceAlpha" type="matrix" values="0 0 0 0 0 0 0 0 0 0 0 0 0 0 0 0 0 0 127 0" result="hardAlpha"/>
<feOffset/>
<feGaussianBlur stdDeviation="4"/>
<feComposite in2="hardAlpha" operator="out"/>
<feColorMatrix type="matrix" values="0 0 0 0 0.992157 0 0 0 0 0.729412 0 0 0 0 0.454902 0 0 0 0.24 0"/>
<feBlend mode="normal" in2="BackgroundImageFix" result="effect1_dropShadow_2068_944"/>
<feBlend mode="normal" in="SourceGraphic" in2="effect1_dropShadow_2068_944" result="shape"/>
</filter>
<filter id="filter1_d_2068_944" x="44.9283" y="215.474" width="438.026" height="219.249" filterUnits="userSpaceOnUse" color-interpolation-filters="sRGB">
<feFlood flood-opacity="0" result="BackgroundImageFix"/>
<feColorMatrix in="SourceAlpha" type="matrix" values="0 0 0 0 0 0 0 0 0 0 0 0 0 0 0 0 0 0 127 0" result="hardAlpha"/>
<feOffset/>
<feGaussianBlur stdDeviation="4"/>
<feComposite in2="hardAlpha" operator="out"/>
<feColorMatrix type="matrix" values="0 0 0 0 0.992157 0 0 0 0 0.729412 0 0 0 0 0.454902 0 0 0 0.24 0"/>
<feBlend mode="normal" in2="BackgroundImageFix" result="effect1_dropShadow_2068_944"/>
<feBlend mode="normal" in="SourceGraphic" in2="effect1_dropShadow_2068_944" result="shape"/>
</filter>
<linearGradient id="paint0_linear_2068_944" x1="256.5" y1="114" x2="256.5" y2="467" gradientUnits="userSpaceOnUse">
<stop stop-color="#FDBA74" stop-opacity="0.8"/>
<stop offset="1" stop-color="#FB923C" stop-opacity="0"/>
</linearGradient>
<linearGradient id="paint1_linear_2068_944" x1="321.407" y1="108.627" x2="187.057" y2="170.145" gradientUnits="userSpaceOnUse">
<stop stop-color="#FAFAFA"/>
<stop offset="1" stop-color="#FDBA74" stop-opacity="0"/>
</linearGradient>
<linearGradient id="paint2_linear_2068_944" x1="345.488" y1="233.648" x2="209.085" y2="221.891" gradientUnits="userSpaceOnUse">
<stop stop-color="#FAFAFA" stop-opacity="0.7"/>
<stop offset="0.395" stop-color="#FDBA74" stop-opacity="0.1"/>
<stop offset="1" stop-color="#FDBA74" stop-opacity="0"/>
</linearGradient>
</defs>
</svg>
