<svg width="1440" height="1069" viewBox="0 0 1440 1069" fill="none" xmlns="http://www.w3.org/2000/svg">
<g clip-path="url(#clip0_2021_3798)">
<g filter="url(#filter0_f_2021_3798)">
<ellipse cx="719.5" cy="442.5" rx="481.5" ry="144.5" fill="#FDBA74" fill-opacity="0.6"/>
</g>
</g>
<path d="M720 281C422.319 281 181 522.319 181 820H1259C1259 522.319 1017.68 281 720 281Z" fill="url(#paint0_linear_2021_3798)"/>
<mask id="mask0_2021_3798" style="mask-type:alpha" maskUnits="userSpaceOnUse" x="181" y="281" width="1078" height="539">
<path d="M720 281C422.319 281 181 522.319 181 820H1259C1259 522.319 1017.68 281 720 281Z" fill="white"/>
</mask>
<g mask="url(#mask0_2021_3798)">
<g opacity="0.2" filter="url(#filter1_f_2021_3798)">
<path fill-rule="evenodd" clip-rule="evenodd" d="M188.645 697.027C231.881 442.667 453.324 249 720 249C986.676 249 1208.12 442.667 1251.36 697.028C1135.3 527.918 940.601 417 720 417C499.399 417 304.705 527.918 188.645 697.027Z" fill="#FDBA74"/>
</g>
<g opacity="0.5" filter="url(#filter2_f_2021_3798)">
<path fill-rule="evenodd" clip-rule="evenodd" d="M216.34 595.635C293.799 392.948 490.089 249 720 249C949.911 249 1146.2 392.949 1223.66 595.635C1105.66 447.756 923.896 353 720 353C516.104 353 334.339 447.756 216.34 595.635Z" fill="#FB923C"/>
</g>
<g filter="url(#filter3_f_2021_3798)">
<path fill-rule="evenodd" clip-rule="evenodd" d="M275.6 482.903C372.775 341.629 535.57 249 720 249C904.43 249 1067.22 341.63 1164.4 482.903C1048.83 372.678 892.317 305 720 305C547.683 305 391.173 372.678 275.6 482.903Z" fill="#FB923C"/>
</g>
</g>
<g filter="url(#filter4_dd_2021_3798)">
<path d="M1259 820C1259 522.319 1017.68 281 720 281C422.319 281 181 522.319 181 820" stroke="url(#paint1_linear_2021_3798)" stroke-width="5"/>
</g>
<rect x="80" y="384" width="1280" height="401" fill="url(#paint2_linear_2021_3798)"/>
<defs>
<filter id="filter0_f_2021_3798" x="-74" y="-14" width="1587" height="913" filterUnits="userSpaceOnUse" color-interpolation-filters="sRGB">
<feFlood flood-opacity="0" result="BackgroundImageFix"/>
<feBlend mode="normal" in="SourceGraphic" in2="BackgroundImageFix" result="shape"/>
<feGaussianBlur stdDeviation="156" result="effect1_foregroundBlur_2021_3798"/>
</filter>
<filter id="filter1_f_2021_3798" x="148.645" y="209" width="1142.71" height="528.028" filterUnits="userSpaceOnUse" color-interpolation-filters="sRGB">
<feFlood flood-opacity="0" result="BackgroundImageFix"/>
<feBlend mode="normal" in="SourceGraphic" in2="BackgroundImageFix" result="shape"/>
<feGaussianBlur stdDeviation="20" result="effect1_foregroundBlur_2021_3798"/>
</filter>
<filter id="filter2_f_2021_3798" x="176.34" y="209" width="1087.32" height="426.635" filterUnits="userSpaceOnUse" color-interpolation-filters="sRGB">
<feFlood flood-opacity="0" result="BackgroundImageFix"/>
<feBlend mode="normal" in="SourceGraphic" in2="BackgroundImageFix" result="shape"/>
<feGaussianBlur stdDeviation="20" result="effect1_foregroundBlur_2021_3798"/>
</filter>
<filter id="filter3_f_2021_3798" x="235.6" y="209" width="968.8" height="313.903" filterUnits="userSpaceOnUse" color-interpolation-filters="sRGB">
<feFlood flood-opacity="0" result="BackgroundImageFix"/>
<feBlend mode="normal" in="SourceGraphic" in2="BackgroundImageFix" result="shape"/>
<feGaussianBlur stdDeviation="20" result="effect1_foregroundBlur_2021_3798"/>
</filter>
<filter id="filter4_dd_2021_3798" x="114.5" y="214.5" width="1211" height="669.5" filterUnits="userSpaceOnUse" color-interpolation-filters="sRGB">
<feFlood flood-opacity="0" result="BackgroundImageFix"/>
<feColorMatrix in="SourceAlpha" type="matrix" values="0 0 0 0 0 0 0 0 0 0 0 0 0 0 0 0 0 0 127 0" result="hardAlpha"/>
<feOffset/>
<feGaussianBlur stdDeviation="32"/>
<feColorMatrix type="matrix" values="0 0 0 0 0.992157 0 0 0 0 0.729412 0 0 0 0 0.454902 0 0 0 1 0"/>
<feBlend mode="normal" in2="BackgroundImageFix" result="effect1_dropShadow_2021_3798"/>
<feColorMatrix in="SourceAlpha" type="matrix" values="0 0 0 0 0 0 0 0 0 0 0 0 0 0 0 0 0 0 127 0" result="hardAlpha"/>
<feOffset/>
<feGaussianBlur stdDeviation="4"/>
<feColorMatrix type="matrix" values="0 0 0 0 0.992157 0 0 0 0 0.729412 0 0 0 0 0.454902 0 0 0 0.5 0"/>
<feBlend mode="normal" in2="effect1_dropShadow_2021_3798" result="effect2_dropShadow_2021_3798"/>
<feBlend mode="normal" in="SourceGraphic" in2="effect2_dropShadow_2021_3798" result="shape"/>
</filter>
<linearGradient id="paint0_linear_2021_3798" x1="720" y1="281" x2="720" y2="727" gradientUnits="userSpaceOnUse">
<stop stop-color="white" stop-opacity="0"/>
<stop offset="0.16253" stop-color="white" stop-opacity="0.2"/>
<stop offset="1" stop-color="white"/>
</linearGradient>
<linearGradient id="paint1_linear_2021_3798" x1="720" y1="281" x2="720" y2="820" gradientUnits="userSpaceOnUse">
<stop stop-color="#FB923C"/>
<stop offset="0.491922" stop-color="#FDBA74" stop-opacity="0.1"/>
<stop offset="1" stop-color="#FDBA74" stop-opacity="0"/>
</linearGradient>
<linearGradient id="paint2_linear_2021_3798" x1="720" y1="384" x2="720" y2="785" gradientUnits="userSpaceOnUse">
<stop stop-color="white" stop-opacity="0"/>
<stop offset="0.855" stop-color="white"/>
</linearGradient>
<clipPath id="clip0_2021_3798">
<rect width="1713" height="1069" fill="white" transform="translate(-137)"/>
</clipPath>
</defs>
</svg>
